<svg width="350" height="101" viewBox="0 0 350 101" fill="none" xmlns="http://www.w3.org/2000/svg">
<path fill-rule="evenodd" clip-rule="evenodd" d="M48.2824 90.1619C52.2882 90.1619 55.5354 86.9129 55.5354 82.9051C55.5354 78.8972 52.2882 75.6482 48.2824 75.6482C44.2767 75.6482 41.0294 78.8972 41.0294 82.9051C41.0294 86.9129 44.2767 90.1619 48.2824 90.1619ZM48.2825 86.9359C50.5079 86.9359 52.312 85.1308 52.312 82.9043C52.312 80.6777 50.5079 78.8727 48.2825 78.8727C46.0571 78.8727 44.2531 80.6777 44.2531 82.9043C44.2531 85.1308 46.0571 86.9359 48.2825 86.9359Z" fill="#FFB71A"/>
<path fill-rule="evenodd" clip-rule="evenodd" d="M73.1499 90.1619C77.1556 90.1619 80.4029 86.9129 80.4029 82.9051C80.4029 78.8972 77.1556 75.6482 73.1499 75.6482C69.1441 75.6482 65.8969 78.8972 65.8969 82.9051C65.8969 86.9129 69.1441 90.1619 73.1499 90.1619ZM73.15 86.9359C75.3754 86.9359 77.1794 85.1308 77.1794 82.9043C77.1794 80.6777 75.3754 78.8727 73.15 78.8727C70.9246 78.8727 69.1205 80.6777 69.1205 82.9043C69.1205 85.1308 70.9246 86.9359 73.15 86.9359Z" fill="#FFB71A"/>
<path d="M1.65522 26.9301L14.8356 26.9279C15.6394 26.9278 16.365 27.4092 16.6777 28.15L35.3336 72.3519C35.6462 73.0926 36.3717 73.574 37.1753 73.574L91.8005 73.5748" stroke="#FFB71A" stroke-width="2.5" stroke-linecap="round"/>
<path d="M38.9223 50.6728C38.6069 49.4106 39.5616 48.188 40.8626 48.188H61.1689C62.2734 48.188 63.1689 49.0834 63.1689 50.188V50.3348C63.1689 51.4393 62.2734 52.3348 61.1689 52.3348H52.7351C51.6306 52.3348 50.7351 53.2302 50.7351 54.3348V54.4815C50.7351 55.5861 51.6306 56.4815 52.7351 56.4815H75.6749C76.7795 56.4815 77.6749 57.377 77.6749 58.4815V58.6283C77.6749 59.7329 76.7795 60.6283 75.6749 60.6283H65.1689C64.0643 60.6283 63.1689 61.5237 63.1689 62.6283V62.7751C63.1689 63.8797 64.0643 64.7751 65.1689 64.7751H88.1086C89.2132 64.7751 90.1086 65.6705 90.1086 66.7751V66.9219C90.1086 68.0264 89.2132 68.9219 88.1086 68.9219H45.0439C44.126 68.9219 43.326 68.2971 43.1035 67.4067L38.9223 50.6728Z" fill="#064BEF"/>
<path d="M89.4878 49.8499C89.8032 51.1121 88.8485 52.3347 87.5474 52.3347H67.2412C66.1366 52.3347 65.2412 51.4393 65.2412 50.3347V50.1879C65.2412 49.0834 66.1366 48.1879 67.2412 48.1879H75.6749C76.7795 48.1879 77.6749 47.2925 77.6749 46.1879V46.0412C77.6749 44.9366 76.7795 44.0412 75.6749 44.0412H52.7352C51.6306 44.0412 50.7352 43.1457 50.7352 42.0412V41.8944C50.7352 40.7898 51.6306 39.8944 52.7352 39.8944H63.2412C64.3457 39.8944 65.2412 38.999 65.2412 37.8944V37.7476C65.2412 36.643 64.3457 35.7476 63.2412 35.7476H40.3014C39.1968 35.7476 38.3014 34.8522 38.3014 33.7476V33.6008C38.3014 32.4963 39.1968 31.6008 40.3014 31.6008L83.3662 31.6008C84.284 31.6008 85.084 32.2256 85.3065 33.116L89.4878 49.8499Z" fill="#EFAE1A"/>
<path d="M344.292 69.443H343.048V69.9639H344.913V70.4847H346.623V71.266H345.431V72.0472H348.903V72.8285H343.256V73.8701H343.67V73.9743C343.67 74.0437 343.653 74.0958 343.618 74.1305C343.549 74.4778 343.428 74.7382 343.256 74.9118H342.841C342.703 75.0507 342.599 75.1375 342.53 75.1722H344.292C344.119 75.3111 343.877 75.3805 343.566 75.3805H337.712C337.125 75.3805 336.538 75.3632 335.951 75.3285C335.398 75.2937 334.863 75.2416 334.345 75.1722H332.583C332.341 75.1375 332.1 75.1028 331.858 75.068C331.616 74.9986 331.357 74.9465 331.081 74.9118H331.495C331.046 74.8076 330.615 74.6861 330.2 74.5472C329.82 74.4083 329.44 74.2694 329.06 74.1305H329.112C329.009 74.0611 328.905 74.009 328.801 73.9743C328.698 73.9396 328.611 73.9048 328.542 73.8701H328.128C327.852 73.6965 327.575 73.5403 327.299 73.4014C327.023 73.2278 326.746 73.0368 326.47 72.8285H332.169C332.031 72.6896 331.875 72.568 331.703 72.4639C331.564 72.325 331.426 72.1861 331.288 72.0472H327.817L327.144 71.266H328.387C328.283 71.1271 328.18 71.0055 328.076 70.9014C328.007 70.7625 327.938 70.6236 327.869 70.4847H326.159L325.848 69.9639H323.983C323.949 69.8944 323.914 69.8076 323.88 69.7035C323.845 69.5993 323.793 69.5125 323.724 69.443H325.019L324.709 68.6618H325.745L325.589 68.141C325.52 67.9326 325.486 67.759 325.486 67.6201H329.578C329.544 67.4812 329.509 67.3597 329.475 67.2555C329.475 67.1166 329.475 66.9778 329.475 66.8389H323.569C323.569 66.7694 323.552 66.7173 323.517 66.6826C323.517 66.6479 323.517 66.6132 323.517 66.5785H323.362C323.362 66.4396 323.344 66.318 323.31 66.2139C323.31 66.075 323.31 65.9361 323.31 65.7972H323.154C323.154 65.6583 323.137 65.5368 323.103 65.4326C323.103 65.2937 323.103 65.1548 323.103 65.016H323.828V64.7555H323.362V64.2347H322.947V63.193H323.569V62.1514H322.947V61.3701H323.413V60.8493H323.465V60.068H323.724V58.2451H323.828V57.4639H324.087V57.4118H319.994C319.476 57.4118 319.062 57.1687 318.751 56.6826H319.528C319.424 56.4743 319.372 56.2486 319.372 56.0055V55.641H317.715V54.8597H318.077V53.818H317.818V53.2972H317.922V52.7764H318.699V52.516H317.404V51.7347H318.958V50.9535H318.647V50.4326H318.284V49.6514H317.974V49.391H317.818C317.922 48.8701 318.25 48.5229 318.803 48.3493H319.113C319.217 48.3146 319.355 48.2972 319.528 48.2972H323.621V48.0889H323.828V47.3076H323.413V46.7868H323.362V46.0055H323.154V45.7451H321.911V45.2243H320.719V44.9639H321.134V44.7035H322.325V43.6618H322.792V43.141H321.134V42.6201H323.672V41.8389H323.413V41.5784H322.844V41.0576H323.362V40.7972H322.844V40.016H323.31V39.8076C323.31 39.634 323.344 39.443 323.413 39.2347H324.087C324.329 38.6791 324.76 38.4014 325.382 38.4014H334.448C335.001 38.4014 335.433 38.6791 335.744 39.2347H335.07C335.139 39.443 335.174 39.634 335.174 39.8076V40.016H334.707V40.7972H335.225V41.0576H334.707V41.5784H335.277V41.8389H335.536V42.6201H332.998V43.141H334.656V43.6618H334.189V44.7035H332.998V44.9639H332.583V45.2243H333.775V45.7451H335.018V46.0055H335.225V46.7868H335.277V47.3076H335.692V48.0889H335.484V48.2972H342.012C342.185 48.2972 342.306 48.3146 342.375 48.3493H342.064C342.548 48.5229 342.876 48.8701 343.048 49.391H343.204C343.204 49.4257 343.204 49.4604 343.204 49.4951C343.238 49.5298 343.256 49.5819 343.256 49.6514H343.566V50.4326H343.929V50.9535H344.24V51.7347H342.686V52.516H343.981V52.7764H343.204V53.2972H343.1V53.818H343.359V54.8597H342.997V55.641H344.654V56.0055C344.654 56.1444 344.637 56.266 344.603 56.3701C344.568 56.4743 344.516 56.5785 344.447 56.6826H343.722C343.411 57.1687 342.997 57.4118 342.478 57.4118H335.951V57.4639H335.692V58.2451H335.588V60.068H335.329V60.8493H335.277V61.3701H334.811V62.1514H335.433V63.193H334.811C334.811 63.3666 334.811 63.5403 334.811 63.7139C334.846 63.8875 334.88 64.0611 334.915 64.2347H335.381C335.45 64.443 335.519 64.6166 335.588 64.7555H336.003L336.158 65.016H335.433C335.813 65.5021 336.4 65.7451 337.194 65.7451H341.909C342.081 65.7451 342.202 65.7625 342.271 65.7972H342.427C342.841 65.9014 343.135 66.1618 343.307 66.5785H343.463C343.463 66.6132 343.463 66.6479 343.463 66.6826C343.497 66.7173 343.515 66.7694 343.515 66.8389H349.421C349.421 66.8736 349.421 66.9257 349.421 66.9951C349.455 67.0298 349.472 67.0819 349.472 67.1514V67.6201H345.328V68.6618H344.292V69.443Z" fill="white"/>
<path d="M316.13 52.2555H318.099V53.2971H317.995V54.3388H316.182V55.12H316.648V56.1617H316.234V57.2034H315.302V57.4638H312.038V57.8284C312.038 57.8978 312.02 57.9673 311.986 58.0367C311.986 58.1061 311.969 58.1756 311.934 58.245H313.126C312.953 58.9048 312.504 59.2346 311.779 59.2346H305.095C304.957 59.2346 304.819 59.2346 304.681 59.2346C304.577 59.2346 304.474 59.252 304.37 59.2867H306.442C306.27 59.3214 306.114 59.3561 305.976 59.3909C305.838 59.4256 305.683 59.4777 305.51 59.5471H307.22C307.116 59.5818 306.961 59.6686 306.753 59.8075H307.738L307.427 60.068H307.686C307.479 60.2763 307.323 60.5367 307.22 60.8492H305.665C305.596 60.9881 305.562 61.0749 305.562 61.1096H305.044C305.044 61.1443 305.026 61.1791 304.992 61.2138C304.992 61.2485 304.992 61.3006 304.992 61.37H305.614C305.579 61.4395 305.562 61.5263 305.562 61.6305C305.562 61.6999 305.544 61.7867 305.51 61.8909H305.821V62.6721H305.095V63.193H305.821V63.9742H306.598V65.0159H305.458V65.2763H304.629V65.5367H307.738V66.318H306.183V66.8388H306.702V67.3596H305.51V68.4013H304.836V68.6617H304.163V69.443H305.924V70.2242H304.992V71.0055H305.924V71.2659H305.821V71.7867H304.681V72.3075H305.51V73.3492H305.717V74.1305H305.51C305.441 74.6166 305.216 74.9638 304.836 75.1721H304.37C304.197 75.311 303.956 75.3805 303.645 75.3805H293.802C293.491 75.3805 293.249 75.311 293.076 75.1721H293.542C293.163 74.9638 292.938 74.6166 292.869 74.1305H293.076V73.3492H292.869V72.3075H292.04V71.7867H293.18V71.2659H293.283V71.0055H292.351V70.2242H293.283V69.443H291.522V68.6617H292.195V68.4013H292.869V67.3596H294.061V66.8388H293.542V66.318H295.097V65.5367H291.988V65.2763H292.817V65.0159H293.957V63.9742H293.18V63.193H292.455V62.6721H293.18V61.8909H292.869V61.37H292.247V61.1096H292.765V60.8492H294.32V60.068H294.061V59.8075H293.128V59.5471H291.418V59.2867H289.346V58.245H288.206V57.4638H291.47V57.2034H292.403V56.1617H292.817V55.12H292.351V54.3388H294.164V53.2971H294.268V52.2555H292.299V51.4742H293.957V50.4325H292.351V50.1721H292.869V49.7034C292.869 49.5298 292.904 49.3388 292.973 49.1305H292.921C293.163 48.5749 293.594 48.2971 294.216 48.2971H303.282C303.869 48.2971 304.284 48.5749 304.526 49.1305H304.629C304.698 49.3388 304.733 49.5298 304.733 49.7034V50.1721H304.215V50.4325H305.821V50.5888L306.028 50.4325H306.132C306.201 50.3631 306.27 50.311 306.339 50.2763C306.408 50.2416 306.46 50.2068 306.494 50.1721H306.598C307.289 49.7207 307.962 49.3735 308.618 49.1305H308.722C309.413 48.8527 310.104 48.6443 310.794 48.5055C311.485 48.3666 312.21 48.2971 312.97 48.2971H315.457C316.079 48.2971 316.51 48.5749 316.752 49.1305H316.648C316.718 49.3388 316.752 49.5298 316.752 49.7034V50.1721H316.7V50.4325H316.597V51.4742H316.13V52.2555Z" fill="white"/>
<path d="M287.788 72.568V73.0889H292.295V73.9743C292.295 74.0437 292.278 74.0958 292.244 74.1305H289.809C289.74 74.6166 289.515 74.9639 289.135 75.1722H288.669C288.496 75.3111 288.255 75.3805 287.944 75.3805H278.877C278.567 75.3805 278.325 75.3111 278.152 75.1722H278.567C278.221 74.9291 278.014 74.5819 277.945 74.1305H280.432V73.0889H278.359C278.187 73.2625 277.997 73.4361 277.789 73.6097C277.617 73.7833 277.427 73.9569 277.22 74.1305H276.65C276.028 74.5819 275.406 74.9291 274.785 75.1722H273.127C272.885 75.2764 272.609 75.3632 272.298 75.4326C272.022 75.5368 271.728 75.6236 271.417 75.693H271.003C270.657 75.7625 270.295 75.8146 269.915 75.8493C269.569 75.884 269.207 75.9014 268.827 75.9014C268.412 75.9014 267.998 75.884 267.583 75.8493C267.203 75.8146 266.824 75.7625 266.444 75.693H266.858C266.513 75.6236 266.167 75.5368 265.822 75.4326C265.511 75.3632 265.2 75.2764 264.889 75.1722H266.495C265.736 74.8944 265.045 74.5472 264.423 74.1305H264.993C264.751 73.9569 264.527 73.7833 264.32 73.6097C264.112 73.4361 263.905 73.2625 263.698 73.0889H261.108L260.641 72.568C260.607 72.4986 260.555 72.4118 260.486 72.3076C260.417 72.2035 260.348 72.1166 260.279 72.0472H261.833C261.764 71.9083 261.677 71.7868 261.574 71.6826C261.505 71.5437 261.436 71.4048 261.367 71.266H260.9C260.9 71.2312 260.866 71.1444 260.797 71.0055H260.33L260.175 70.7451H260.227L259.916 69.9639H259.657C259.622 69.825 259.588 69.7035 259.553 69.5993C259.519 69.4604 259.484 69.3215 259.45 69.1826H257.481C257.377 68.8007 257.326 68.4535 257.326 68.141H259.035V67.6201C259.035 67.4465 259.035 67.2729 259.035 67.0993C259.035 66.891 259.052 66.7173 259.087 66.5785H260.641C260.676 66.4048 260.71 66.2312 260.745 66.0576C260.779 65.8493 260.814 65.6757 260.848 65.5368H259.398L259.501 65.2764H259.553L259.657 65.016H259.605C259.674 64.8771 259.743 64.7555 259.812 64.6514C259.881 64.5125 259.933 64.3736 259.968 64.2347H256.911L257.222 63.7139H256.082C256.186 63.6097 256.255 63.5229 256.289 63.4535H258.155C258.224 63.384 258.293 63.2972 258.362 63.193C258.431 63.0889 258.5 63.0021 258.569 62.9326H258.673C259.018 62.516 259.381 62.1687 259.761 61.891H255.512C255.754 61.7173 256.013 61.5437 256.289 61.3701C256.531 61.1618 256.79 60.9882 257.067 60.8493H259.916L260.382 60.5889H261.833C261.902 60.5194 261.988 60.4673 262.092 60.4326C262.195 60.3979 262.282 60.3632 262.351 60.3285H262.973C263.594 60.016 264.268 59.7555 264.993 59.5472H268.153C268.637 59.3736 269.12 59.2347 269.604 59.1305C270.122 58.9916 270.657 58.8701 271.21 58.766H269.915L270.744 58.6097L276.235 57.7243V57.4639H278.877V57.2035H273.904V56.943H276.857C276.857 56.7694 276.857 56.6305 276.857 56.5264C276.857 56.3875 276.84 56.266 276.805 56.1618C276.771 55.8493 276.65 55.5889 276.442 55.3805H275.562C275.527 55.3458 275.441 55.2937 275.303 55.2243L274.94 55.3805H274.059C273.921 55.4847 273.783 55.6062 273.645 55.7451C273.507 55.8493 273.351 55.9882 273.179 56.1618H273.23C272.85 56.5437 272.367 56.7347 271.78 56.7347H262.973C262.454 56.7347 262.109 56.5437 261.936 56.1618H261.885C261.781 55.9882 261.746 55.7972 261.781 55.5889V55.3805H262.61C262.644 55.3111 262.662 55.2243 262.662 55.1201H259.346C259.346 54.9812 259.381 54.8076 259.45 54.5993H266.91C266.91 54.5646 266.944 54.4778 267.014 54.3389H262.403C262.506 53.9916 262.662 53.6444 262.869 53.2972H263.75C263.853 53.1236 263.974 52.95 264.112 52.7764C264.25 52.6028 264.389 52.4291 264.527 52.2555H260.641L261.108 51.7347H268.62C268.758 51.5958 268.896 51.4743 269.034 51.3701C269.207 51.2312 269.362 51.0923 269.5 50.9535H264.734L265.045 50.693H263.594C263.767 50.5541 263.957 50.4326 264.164 50.3285C264.371 50.1896 264.579 50.0507 264.786 49.9118H267.221C267.946 49.4951 268.706 49.1479 269.5 48.8701H269.863C270.795 48.5229 271.832 48.2625 272.971 48.0889C274.146 47.8805 275.424 47.7764 276.805 47.7764C279.637 47.7764 282.038 48.141 284.006 48.8701H283.592C283.972 49.009 284.334 49.1653 284.68 49.3389C285.06 49.5125 285.422 49.7035 285.768 49.9118H283.333L284.421 50.693H285.871L286.182 50.9535H290.948L291.726 51.7347H284.214C284.283 51.8041 284.352 51.891 284.421 51.9951C284.49 52.0993 284.559 52.1861 284.628 52.2555H288.462C288.6 52.3944 288.721 52.568 288.824 52.7764C288.963 52.95 289.066 53.1236 289.135 53.2972H288.306L288.773 54.3389H293.383C293.452 54.4778 293.487 54.5646 293.487 54.5993H286.027C286.096 54.6687 286.13 54.7555 286.13 54.8597C286.165 54.9639 286.199 55.0507 286.234 55.1201H287.944C287.944 55.1548 287.944 55.1896 287.944 55.2243C287.978 55.259 287.995 55.3111 287.995 55.3805H288.876L289.187 56.943H286.182C286.182 56.9778 286.182 57.0125 286.182 57.0472C286.217 57.0819 286.234 57.134 286.234 57.2035H291.208V57.4639H288.617V57.7243C288.652 57.8979 288.669 58.0715 288.669 58.2451C288.669 58.4187 288.669 58.5923 288.669 58.766H290.016V59.5472H286.804V60.3285H286.234V60.5889H284.835V60.8493H281.986V61.891H286.234V62.9326H286.13V63.4535H284.265V63.7139H285.405V64.2347H288.824V65.016H288.203V65.5368H288.617V66.5785H288.306V68.141H286.597V69.1826H288.565V69.9639H288.824V71.0055H289.291V71.266H289.705V72.0472H288.099V72.568H287.788ZM272.764 55.068C272.522 55.068 272.35 55.0854 272.246 55.1201H273.334C273.23 55.0854 273.04 55.068 272.764 55.068ZM273.127 64.1305L272.661 64.2347H273.127V64.1305ZM271.365 65.5368H272.816C272.436 65.8146 272.246 66.1618 272.246 66.5785H270.692V66.7347C270.692 67.0819 270.813 67.3771 271.054 67.6201C271.227 67.8632 271.573 68.0368 272.091 68.141H273.334C273.852 68.0368 274.301 67.8632 274.681 67.6201C274.992 67.3423 275.285 66.9951 275.562 66.5785H275.821C275.89 66.4048 275.959 66.2486 276.028 66.1097C276.097 65.9361 276.149 65.7451 276.183 65.5368H275.769C275.769 65.4673 275.769 65.4153 275.769 65.3805C275.803 65.3458 275.821 65.3111 275.821 65.2764H275.873V65.016H276.494C276.529 64.8771 276.546 64.7555 276.546 64.6514C276.546 64.5125 276.546 64.3736 276.546 64.2347H275.665L273.127 64.8076C272.989 64.8423 272.85 64.8771 272.712 64.9118C272.609 64.9465 272.505 64.9812 272.401 65.016C272.298 65.0507 272.194 65.0854 272.091 65.1201C271.987 65.1548 271.901 65.2069 271.832 65.2764H271.78C271.711 65.3111 271.642 65.3458 271.573 65.3805C271.503 65.4153 271.434 65.4673 271.365 65.5368ZM271.624 68.141H270.329C270.467 68.1757 270.675 68.193 270.951 68.193C271.054 68.193 271.158 68.193 271.262 68.193C271.4 68.193 271.521 68.1757 271.624 68.141Z" fill="white"/>
<path d="M257.322 58.5055H260.845C260.845 58.5403 260.828 58.575 260.793 58.6097C260.758 58.6444 260.724 58.6965 260.689 58.766H259.498C259.222 59.1132 258.842 59.2868 258.358 59.2868H248.256C247.772 59.2868 247.392 59.1132 247.116 58.766H248.307L248.152 58.5055H244.577L244.422 58.2451C244.387 58.1062 244.301 57.9326 244.163 57.7243H243.282C243.075 57.3423 242.85 57.0819 242.609 56.943H243.904C243.628 56.7694 243.299 56.6826 242.92 56.6826C242.505 56.6826 242.16 56.7694 241.883 56.943H240.795C240.519 57.0819 240.295 57.3423 240.122 57.7243H239.656C239.587 57.8632 239.518 58.0368 239.448 58.2451H242.246C242.212 58.3146 242.194 58.4014 242.194 58.5055H243.593C243.558 58.575 243.541 58.6618 243.541 58.766H245.251C245.216 58.8354 245.199 58.9222 245.199 59.0264C245.199 59.1305 245.182 59.2173 245.147 59.2868H245.354V59.5472H243.334V60.068H236.858V60.3285H246.805C246.771 60.5021 246.753 60.6757 246.753 60.8493C246.753 61.0229 246.753 61.1965 246.753 61.3701H237.583V61.6305H241.262V61.891H240.277V62.9326H237.48C237.48 63.0715 237.48 63.2104 237.48 63.3493C237.48 63.4535 237.497 63.575 237.532 63.7139V64.2347H240.64C240.64 64.4778 240.657 64.6514 240.692 64.7555H237.842C237.911 65.2069 237.981 65.5541 238.05 65.7972H237.48C237.687 66.2833 237.981 66.6305 238.36 66.8389H240.07C240.346 66.943 240.64 66.9951 240.951 66.9951C241.331 66.9951 241.642 66.943 241.883 66.8389H242.609C242.92 66.6653 243.213 66.318 243.489 65.7972H242.091L242.246 65.4326C242.315 65.2937 242.384 65.1722 242.453 65.068C242.557 64.9291 242.643 64.825 242.712 64.7555H246.339C246.65 64.5125 246.995 64.391 247.375 64.391H257.477C257.823 64.391 258.151 64.5125 258.462 64.7555H254.835C255.181 65.0333 255.319 65.3805 255.25 65.7972H256.648C256.614 65.9361 256.579 66.0923 256.545 66.266C256.545 66.4396 256.51 66.6305 256.441 66.8389H255.664L255.509 67.3597H258.824L258.721 67.6201H257.633L257.529 67.8805H251.779L251.623 68.141H257.892L257.322 69.1826H257.84L257.685 69.443H253.799C253.695 69.6166 253.575 69.7903 253.436 69.9639C253.333 70.1375 253.212 70.3111 253.074 70.4847H252.141C252.107 70.5194 252.072 70.5541 252.038 70.5889C252.003 70.6236 251.969 70.6757 251.934 70.7451H255.509C255.474 70.7798 255.44 70.8146 255.405 70.8493C255.371 70.884 255.336 70.9361 255.301 71.0055H252.711C252.677 71.0403 252.642 71.075 252.607 71.1097C252.573 71.1444 252.521 71.1965 252.452 71.266H254.628L254.11 71.7868H253.851L253.592 72.0472H254.214L253.592 72.568H254.524C254.352 72.7069 254.162 72.8458 253.954 72.9847C253.782 73.0889 253.592 73.2104 253.385 73.3493H254.421L254.006 73.6097H252.867L251.934 74.1305H252.245C251.692 74.443 251.071 74.7035 250.38 74.9118H249.499C249.188 75.016 248.877 75.1201 248.567 75.2243C248.256 75.2937 247.945 75.3632 247.634 75.4326H247.168C246.926 75.4673 246.684 75.5021 246.442 75.5368C246.201 75.6062 245.959 75.6583 245.717 75.693H246.753C246.27 75.7625 245.769 75.8146 245.251 75.8493C244.733 75.884 244.197 75.9014 243.645 75.9014C243.127 75.9014 242.626 75.884 242.142 75.8493C241.659 75.8146 241.175 75.7625 240.692 75.693H239.604C239.362 75.6583 239.12 75.6062 238.879 75.5368C238.671 75.5021 238.447 75.4673 238.205 75.4326H238.671C238.36 75.3632 238.05 75.2937 237.739 75.2243C237.428 75.1201 237.134 75.016 236.858 74.9118H237.739C237.083 74.7035 236.478 74.443 235.926 74.1305H235.563C235.425 74.0611 235.269 73.9916 235.097 73.9222C234.958 73.818 234.82 73.7139 234.682 73.6097H235.77L235.356 73.3493H234.32L233.283 72.568H232.403C232.299 72.4986 232.195 72.4118 232.092 72.3076C231.988 72.2035 231.902 72.1166 231.833 72.0472H231.159L230.9 71.7868H231.159L230.641 71.266H228.517C228.414 71.1618 228.344 71.075 228.31 71.0055H230.9C230.797 70.9014 230.728 70.8146 230.693 70.7451H227.067C227.032 70.6757 226.963 70.5889 226.859 70.4847H227.792C227.654 70.3111 227.533 70.1375 227.429 69.9639C227.326 69.7903 227.222 69.6166 227.118 69.443H231.004L230.848 69.1826H230.33C230.227 69.009 230.123 68.8354 230.02 68.6618C229.95 68.4882 229.881 68.3146 229.812 68.141H223.595L223.492 67.8805H229.242L229.139 67.6201H230.227L230.123 67.3597H226.807L226.652 66.8389H224.942C224.908 66.6653 224.873 66.4916 224.839 66.318C224.804 66.1444 224.77 65.9708 224.735 65.7972H225.253L225.098 64.7555H227.947V64.2347H224.839V63.9743C224.804 63.8007 224.787 63.6271 224.787 63.4535C224.787 63.2798 224.787 63.1062 224.787 62.9326H227.585V61.891H228.569V61.6305H224.891V61.3701H234.06V60.3285H224.165V60.068H230.641V59.5472H232.662V59.2868H232.454C232.489 59.2173 232.506 59.1305 232.506 59.0264C232.506 58.9222 232.506 58.8354 232.506 58.766H230.848V58.5055H229.45C229.45 58.4014 229.467 58.3146 229.501 58.2451H226.704C226.773 58.0368 226.807 57.8632 226.807 57.7243H227.326L227.481 56.943H228.569L228.88 55.9014H228.983C229.018 55.7625 229.07 55.641 229.139 55.5368C229.208 55.3979 229.26 55.259 229.294 55.1201H229.035C229.104 54.9465 229.173 54.7729 229.242 54.5993C229.346 54.391 229.45 54.2173 229.553 54.0785H229.242C229.312 53.9396 229.381 53.818 229.45 53.7139C229.553 53.575 229.657 53.4361 229.76 53.2972H229.812C229.95 53.1236 230.089 52.95 230.227 52.7764C230.365 52.568 230.503 52.3944 230.641 52.2555H230.693C230.9 51.9778 231.159 51.7173 231.47 51.4743H231.211L231.522 51.2139H231.418L231.729 50.9535H233.646C233.715 50.884 233.784 50.8319 233.853 50.7972C233.922 50.7625 233.974 50.7278 234.009 50.693H232.869C232.938 50.6236 233.007 50.5715 233.076 50.5368C233.145 50.5021 233.197 50.4673 233.232 50.4326H232.817C233.439 50.016 234.043 49.6687 234.63 49.391H235.667C235.874 49.2868 236.081 49.2 236.288 49.1305C236.495 49.0264 236.703 48.9396 236.91 48.8701H235.718C235.856 48.8007 235.977 48.7486 236.081 48.7139C236.219 48.6791 236.357 48.6444 236.495 48.6097H236.444C236.616 48.5403 236.772 48.4882 236.91 48.4535C237.083 48.4187 237.238 48.384 237.376 48.3493H237.221C238.74 47.9673 240.329 47.7764 241.987 47.7764C242.92 47.7764 243.8 47.8285 244.629 47.9326C245.458 48.0368 246.235 48.1757 246.96 48.3493H247.116C247.289 48.384 247.444 48.4187 247.582 48.4535C247.755 48.4882 247.91 48.5403 248.048 48.6097H248.1C248.238 48.6444 248.359 48.6791 248.463 48.7139C248.601 48.7486 248.739 48.8007 248.877 48.8701H250.069C250.587 49.0437 251.019 49.2173 251.364 49.391H250.276C250.622 49.5298 250.95 49.7035 251.26 49.9118C251.571 50.0854 251.882 50.259 252.193 50.4326H252.607C252.677 50.4673 252.746 50.5021 252.815 50.5368C252.884 50.5715 252.936 50.6236 252.97 50.693H254.11C254.179 50.7278 254.231 50.7625 254.265 50.7972C254.334 50.8319 254.403 50.884 254.473 50.9535H252.556L252.867 51.2139H252.97L253.281 51.4743H253.488C253.661 51.6132 253.816 51.7521 253.954 51.891C254.093 51.9951 254.231 52.1166 254.369 52.2555H254.317C254.49 52.4291 254.645 52.6028 254.783 52.7764C254.956 52.95 255.111 53.1236 255.25 53.2972H255.198C255.301 53.4361 255.405 53.575 255.509 53.7139C255.612 53.818 255.699 53.9396 255.768 54.0785H256.079C256.217 54.2521 256.338 54.4257 256.441 54.5993C256.545 54.7729 256.631 54.9465 256.7 55.1201H257.011C257.08 55.259 257.149 55.3979 257.218 55.5368C257.287 55.641 257.339 55.7625 257.374 55.9014H257.322C257.391 56.075 257.46 56.2486 257.529 56.4222C257.598 56.5958 257.65 56.7694 257.685 56.943H256.389L256.545 57.7243H257.426V58.2451L257.322 58.5055Z" fill="white"/>
<path d="M225.449 69.443H224.205V69.9639H226.07V70.4847H227.78V71.266H226.589V72.0472H230.06V72.8285H224.413V73.8701H224.827V73.9743C224.827 74.0437 224.81 74.0958 224.775 74.1305C224.706 74.4778 224.585 74.7382 224.413 74.9118H223.998C223.86 75.0507 223.756 75.1375 223.687 75.1722H225.449C225.276 75.3111 225.034 75.3805 224.723 75.3805H218.869C218.282 75.3805 217.695 75.3632 217.108 75.3285C216.555 75.2937 216.02 75.2416 215.502 75.1722H213.74C213.499 75.1375 213.257 75.1028 213.015 75.068C212.773 74.9986 212.514 74.9465 212.238 74.9118H212.652C212.203 74.8076 211.772 74.6861 211.357 74.5472C210.977 74.4083 210.597 74.2694 210.217 74.1305H210.269C210.166 74.0611 210.062 74.009 209.958 73.9743C209.855 73.9396 209.768 73.9048 209.699 73.8701H209.285C209.009 73.6965 208.732 73.5403 208.456 73.4014C208.18 73.2278 207.903 73.0368 207.627 72.8285H213.326C213.188 72.6896 213.032 72.568 212.86 72.4639C212.721 72.325 212.583 72.1861 212.445 72.0472H208.974L208.301 71.266H209.544C209.44 71.1271 209.337 71.0055 209.233 70.9014C209.164 70.7625 209.095 70.6236 209.026 70.4847H207.316L207.005 69.9639H205.14C205.106 69.8944 205.071 69.8076 205.037 69.7035C205.002 69.5993 204.95 69.5125 204.881 69.443H206.176L205.866 68.6618H206.902L206.746 68.141C206.677 67.9326 206.643 67.759 206.643 67.6201H210.735C210.701 67.4812 210.666 67.3597 210.632 67.2555C210.632 67.1166 210.632 66.9778 210.632 66.8389H204.726C204.726 66.7694 204.709 66.7173 204.674 66.6826C204.674 66.6479 204.674 66.6132 204.674 66.5785H204.519C204.519 66.4396 204.501 66.318 204.467 66.2139C204.467 66.075 204.467 65.9361 204.467 65.7972H204.311C204.311 65.6583 204.294 65.5368 204.26 65.4326C204.26 65.2937 204.26 65.1548 204.26 65.016H204.985V64.7555H204.519V64.2347H204.104V63.193H204.726V62.1514H204.104V61.3701H204.57V60.8493H204.622V60.068H204.881V58.2451H204.985V57.4639H205.244V57.4118H201.151C200.633 57.4118 200.219 57.1687 199.908 56.6826H200.685C200.581 56.4743 200.529 56.2486 200.529 56.0055V55.641H198.872V54.8597H199.234V53.818H198.975V53.2972H199.079V52.7764H199.856V52.516H198.561V51.7347H200.115V50.9535H199.804V50.4326H199.442V49.6514H199.131V49.391H198.975C199.079 48.8701 199.407 48.5229 199.96 48.3493H200.27C200.374 48.3146 200.512 48.2972 200.685 48.2972H204.778V48.0889H204.985V47.3076H204.57V46.7868H204.519V46.0055H204.311V45.7451H203.068V45.2243H201.876V44.9639H202.291V44.7035H203.482V43.6618H203.949V43.141H202.291V42.6201H204.829V41.8389H204.57V41.5784H204.001V41.0576H204.519V40.7972H204.001V40.016H204.467V39.8076C204.467 39.634 204.501 39.443 204.57 39.2347H205.244C205.486 38.6791 205.917 38.4014 206.539 38.4014H215.605C216.158 38.4014 216.59 38.6791 216.901 39.2347H216.227C216.296 39.443 216.331 39.634 216.331 39.8076V40.016H215.864V40.7972H216.382V41.0576H215.864V41.5784H216.434V41.8389H216.693V42.6201H214.155V43.141H215.813V43.6618H215.346V44.7035H214.155V44.9639H213.74V45.2243H214.932V45.7451H216.175V46.0055H216.382V46.7868H216.434V47.3076H216.849V48.0889H216.642V48.2972H223.169C223.342 48.2972 223.463 48.3146 223.532 48.3493H223.221C223.705 48.5229 224.033 48.8701 224.205 49.391H224.361C224.361 49.4257 224.361 49.4604 224.361 49.4951C224.395 49.5298 224.413 49.5819 224.413 49.6514H224.723V50.4326H225.086V50.9535H225.397V51.7347H223.843V52.516H225.138V52.7764H224.361V53.2972H224.257V53.818H224.516V54.8597H224.154V55.641H225.811V56.0055C225.811 56.1444 225.794 56.266 225.76 56.3701C225.725 56.4743 225.673 56.5785 225.604 56.6826H224.879C224.568 57.1687 224.154 57.4118 223.635 57.4118H217.108V57.4639H216.849V58.2451H216.745V60.068H216.486V60.8493H216.434V61.3701H215.968V62.1514H216.59V63.193H215.968C215.968 63.3666 215.968 63.5403 215.968 63.7139C216.003 63.8875 216.037 64.0611 216.072 64.2347H216.538C216.607 64.443 216.676 64.6166 216.745 64.7555H217.16L217.315 65.016H216.59C216.97 65.5021 217.557 65.7451 218.351 65.7451H223.066C223.238 65.7451 223.359 65.7625 223.428 65.7972H223.584C223.998 65.9014 224.292 66.1618 224.464 66.5785H224.62C224.62 66.6132 224.62 66.6479 224.62 66.6826C224.654 66.7173 224.672 66.7694 224.672 66.8389H230.578C230.578 66.8736 230.578 66.9257 230.578 66.9951C230.612 67.0298 230.629 67.0819 230.629 67.1514V67.6201H226.485V68.6618H225.449V69.443Z" fill="white"/>
<path d="M200.274 70.7451H198.15C197.942 71.0923 197.701 71.4396 197.424 71.7868H198.357C198.322 71.8562 198.253 71.943 198.15 72.0472H195.87C195.732 72.1861 195.594 72.325 195.456 72.4639C195.352 72.568 195.214 72.6896 195.041 72.8285H194.989C194.817 72.9673 194.627 73.1062 194.419 73.2451C194.247 73.3493 194.057 73.4708 193.85 73.6097H192.917C192.606 73.818 192.261 74.009 191.881 74.1826C191.501 74.3215 191.121 74.4778 190.741 74.6514H190.534C190.43 74.6861 190.309 74.7208 190.171 74.7555C190.068 74.7903 189.929 74.8423 189.757 74.9118H195.663C195.525 74.9465 195.369 74.9812 195.197 75.016C195.058 75.0507 194.903 75.1028 194.73 75.1722H192.14C191.691 75.2764 191.225 75.3632 190.741 75.4326C190.258 75.5368 189.757 75.6236 189.239 75.693H187.685C187.132 75.7625 186.545 75.8146 185.923 75.8493C185.301 75.884 184.645 75.9014 183.954 75.9014C183.298 75.9014 182.676 75.884 182.089 75.8493C181.537 75.8146 181.001 75.7625 180.483 75.693H181.986C181.502 75.6236 181.036 75.5368 180.587 75.4326C180.138 75.3632 179.706 75.2764 179.292 75.1722H181.882L181.001 74.9118H175.095C174.992 74.8423 174.871 74.7903 174.733 74.7555C174.629 74.7208 174.508 74.6861 174.37 74.6514H174.525C174.146 74.4778 173.766 74.3041 173.386 74.1305C173.04 73.9569 172.695 73.7833 172.35 73.6097H173.282C173.075 73.4708 172.868 73.3493 172.66 73.2451C172.488 73.1062 172.315 72.9673 172.142 72.8285H172.246C172.073 72.6896 171.918 72.568 171.78 72.4639C171.642 72.325 171.503 72.1861 171.365 72.0472H173.593C173.558 71.9778 173.524 71.9257 173.489 71.891C173.455 71.8562 173.42 71.8215 173.386 71.7868H172.401C172.263 71.6132 172.125 71.4396 171.987 71.266C171.849 71.0923 171.711 70.9187 171.572 70.7451H173.748C173.61 70.5715 173.507 70.3979 173.438 70.2243C173.368 70.016 173.299 69.8423 173.23 69.7035H172.246C172.177 69.5646 172.142 69.4778 172.142 69.443H170.536L170.381 68.9222H169.189C169.155 68.818 169.138 68.6618 169.138 68.4535C169.138 68.1757 169.155 67.9847 169.189 67.8805H169.552C169.725 67.4639 170.001 67.2035 170.381 67.0993H170.277C170.346 67.0646 170.467 67.0472 170.64 67.0472H179.862C179.896 67.0472 179.931 67.0646 179.965 67.0993C180.034 67.0993 180.086 67.0993 180.121 67.0993H180.224C180.501 67.1687 180.742 67.2729 180.95 67.4118C181.191 67.5507 181.433 67.7069 181.675 67.8805H181.364C181.64 68.0541 181.934 68.2278 182.245 68.4014C182.556 68.5403 182.918 68.6097 183.333 68.6097C183.609 68.6097 183.868 68.5576 184.11 68.4535C184.352 68.3146 184.49 68.1236 184.524 67.8805H184.68V67.8285C184.68 67.516 184.611 67.2729 184.472 67.0993C184.334 66.891 184.11 66.7173 183.799 66.5785H183.177C182.832 66.4048 182.366 66.2312 181.778 66.0576C181.226 65.884 180.449 65.7104 179.447 65.5368H179.913L179.085 65.3805C178.808 65.3111 178.532 65.259 178.256 65.2243C177.979 65.1548 177.703 65.0854 177.427 65.016H177.634L176.753 64.7555H176.857C176.408 64.6166 175.976 64.4604 175.562 64.2868C175.147 64.1132 174.75 63.9222 174.37 63.7139H174.577L173.334 62.9326H173.23C172.989 62.759 172.764 62.5854 172.557 62.4118C172.384 62.2382 172.211 62.0646 172.039 61.891H170.951C170.916 61.8215 170.882 61.7694 170.847 61.7347C170.813 61.7 170.778 61.6653 170.744 61.6305H171.21C171.106 61.5264 171.037 61.4396 171.003 61.3701H169.552L168.982 60.5889H171.21L170.899 60.068H170.174C170.001 59.6861 169.863 59.3389 169.759 59.0264H170.07C170.07 58.9569 170.053 58.9048 170.018 58.8701C170.018 58.8354 170.018 58.8007 170.018 58.766H172.453C172.453 58.6271 172.419 58.4535 172.35 58.2451H167.791C167.791 58.1062 167.791 57.9847 167.791 57.8805C167.756 57.7416 167.721 57.6028 167.687 57.4639H167.739L167.687 56.943H171.158C171.123 56.8736 171.106 56.7868 171.106 56.6826C171.106 56.5437 171.106 56.4222 171.106 56.318C171.141 56.1791 171.158 56.0403 171.158 55.9014H168.723L168.775 55.3805H171.106L171.262 54.8597H170.225C170.26 54.7903 170.295 54.7035 170.329 54.5993C170.364 54.4951 170.398 54.4083 170.433 54.3389H170.018C170.087 54.2 170.156 54.0785 170.225 53.9743C170.295 53.8354 170.346 53.6965 170.381 53.5576H170.588L170.899 53.0368H170.847C170.916 52.8979 171.003 52.7764 171.106 52.6722C171.21 52.5333 171.313 52.3944 171.417 52.2555C171.521 52.1166 171.624 51.9951 171.728 51.891C171.832 51.7521 171.952 51.6132 172.091 51.4743H171.987L172.246 51.2139H172.194C172.229 51.1444 172.263 51.0923 172.298 51.0576C172.367 51.0229 172.419 50.9882 172.453 50.9535H172.557L173.178 50.4326C173.248 50.3632 173.299 50.3111 173.334 50.2764C173.403 50.2416 173.472 50.2069 173.541 50.1722H172.557C173.144 49.7903 173.783 49.443 174.474 49.1305H176.08C176.183 49.0611 176.287 49.009 176.391 48.9743C176.494 48.9396 176.615 48.9048 176.753 48.8701H173.23C173.368 48.8007 173.489 48.7486 173.593 48.7139C173.731 48.6791 173.869 48.6444 174.007 48.6097H176.235C177.099 48.3319 178.014 48.1236 178.981 47.9847C179.983 47.8458 181.036 47.7764 182.141 47.7764C183.281 47.7764 184.352 47.8458 185.353 47.9847C186.355 48.1236 187.287 48.3319 188.151 48.6097H185.923C186.061 48.6444 186.182 48.6791 186.286 48.7139C186.424 48.7486 186.562 48.8007 186.7 48.8701H190.171L190.897 49.1305H189.291C189.67 49.2694 190.033 49.443 190.378 49.6514C190.724 49.825 191.052 49.9986 191.363 50.1722H192.347L192.762 50.4326H192.813C192.952 50.5021 193.072 50.5889 193.176 50.693C193.314 50.7972 193.435 50.884 193.539 50.9535H193.487L193.798 51.2139H193.85L194.16 51.4743H194.264C194.575 51.7173 194.834 51.9778 195.041 52.2555C195.317 52.4986 195.525 52.759 195.663 53.0368H195.715L196.025 53.5576H195.766C195.836 53.6965 195.905 53.8354 195.974 53.9743C196.043 54.0785 196.095 54.2 196.129 54.3389H196.492L196.647 54.8597H197.631L197.683 55.2243V55.3805H198.564C198.564 55.5194 198.529 55.693 198.46 55.9014C198.219 56.3875 197.873 56.6305 197.424 56.6305H188.721C188.375 56.6305 188.047 56.5611 187.736 56.4222C187.46 56.2486 187.184 56.075 186.907 55.9014C186.666 55.7278 186.389 55.5541 186.078 55.3805H185.198C184.852 55.1722 184.472 55.068 184.058 55.068C183.713 55.068 183.436 55.1722 183.229 55.3805H180.95C180.777 55.5541 180.691 55.7278 180.691 55.9014H183.125C183.125 56.075 183.16 56.2486 183.229 56.4222C183.298 56.5958 183.454 56.7694 183.695 56.943H180.276C180.449 57.0125 180.639 57.0993 180.846 57.2035C181.053 57.3076 181.312 57.3944 181.623 57.4639H181.571C181.986 57.6028 182.504 57.7243 183.125 57.8285C183.782 57.9326 184.542 58.0541 185.405 58.193C185.474 58.193 185.526 58.2104 185.56 58.2451C185.629 58.2451 185.681 58.2451 185.716 58.2451H190.275C190.689 58.3146 191.087 58.4014 191.466 58.5055C191.881 58.575 192.261 58.6618 192.606 58.766H190.171C190.309 58.8007 190.43 58.8354 190.534 58.8701C190.672 58.9048 190.81 58.9569 190.948 59.0264H190.638C191.087 59.1653 191.484 59.3215 191.829 59.4951C192.209 59.6687 192.572 59.8597 192.917 60.068H193.694L194.523 60.5889H192.295C192.468 60.7278 192.641 60.8666 192.813 61.0055C192.986 61.1097 193.142 61.2312 193.28 61.3701H194.73L194.989 61.6305H194.523L194.782 61.891H195.818C196.198 62.2729 196.474 62.6201 196.647 62.9326H196.751C196.854 63.0715 196.941 63.2104 197.01 63.3493C197.079 63.4535 197.148 63.575 197.217 63.7139H197.01C197.079 63.8875 197.148 64.0611 197.217 64.2347C197.321 64.4083 197.39 64.5819 197.424 64.7555H197.269L197.372 65.016H197.165C197.2 65.0854 197.217 65.1722 197.217 65.2764C197.217 65.3805 197.234 65.4673 197.269 65.5368H196.803C196.906 65.884 196.958 66.2312 196.958 66.5785H197.631V66.943C197.631 67.0819 197.614 67.2382 197.58 67.4118C197.58 67.5507 197.58 67.7069 197.58 67.8805H197.424C197.39 68.0541 197.355 68.2278 197.321 68.4014C197.321 68.575 197.286 68.7486 197.217 68.9222H198.409C198.409 69.0958 198.357 69.2694 198.253 69.443H199.911C199.842 69.5819 199.807 69.6687 199.807 69.7035H200.792C200.723 69.8771 200.636 70.0507 200.533 70.2243C200.464 70.3979 200.377 70.5715 200.274 70.7451Z" fill="white"/>
<path d="M165.404 72.568V73.0889H169.911V73.9743C169.911 74.0437 169.894 74.0958 169.859 74.1305H167.424C167.355 74.6166 167.131 74.9639 166.751 75.1722H166.285C166.112 75.3111 165.87 75.3805 165.559 75.3805H156.493C156.182 75.3805 155.94 75.3111 155.768 75.1722H156.182C155.837 74.9291 155.629 74.5819 155.56 74.1305H158.047V73.0889H155.975C155.802 73.2625 155.612 73.4361 155.405 73.6097C155.232 73.7833 155.042 73.9569 154.835 74.1305H154.265C153.644 74.5819 153.022 74.9291 152.4 75.1722H150.742C150.501 75.2764 150.224 75.3632 149.913 75.4326C149.637 75.5368 149.344 75.6236 149.033 75.693H148.618C148.273 75.7625 147.91 75.8146 147.53 75.8493C147.185 75.884 146.822 75.9014 146.442 75.9014C146.028 75.9014 145.613 75.884 145.199 75.8493C144.819 75.8146 144.439 75.7625 144.059 75.693H144.474C144.128 75.6236 143.783 75.5368 143.438 75.4326C143.127 75.3632 142.816 75.2764 142.505 75.1722H144.111C143.351 74.8944 142.66 74.5472 142.039 74.1305H142.609C142.367 73.9569 142.142 73.7833 141.935 73.6097C141.728 73.4361 141.521 73.2625 141.313 73.0889H138.723L138.257 72.568C138.222 72.4986 138.17 72.4118 138.101 72.3076C138.032 72.2035 137.963 72.1166 137.894 72.0472H139.448C139.379 71.9083 139.293 71.7868 139.189 71.6826C139.12 71.5437 139.051 71.4048 138.982 71.266H138.516C138.516 71.2312 138.481 71.1444 138.412 71.0055H137.946L137.791 70.7451H137.842L137.531 69.9639H137.272C137.238 69.825 137.203 69.7035 137.169 69.5993C137.134 69.4604 137.1 69.3215 137.065 69.1826H135.097C134.993 68.8007 134.941 68.4535 134.941 68.141H136.651V67.6201C136.651 67.4465 136.651 67.2729 136.651 67.0993C136.651 66.891 136.668 66.7173 136.703 66.5785H138.257C138.291 66.4048 138.326 66.2312 138.36 66.0576C138.395 65.8493 138.429 65.6757 138.464 65.5368H137.013L137.117 65.2764H137.169L137.272 65.016H137.221C137.29 64.8771 137.359 64.7555 137.428 64.6514C137.497 64.5125 137.549 64.3736 137.583 64.2347H134.527L134.838 63.7139H133.698C133.801 63.6097 133.87 63.5229 133.905 63.4535H135.77C135.839 63.384 135.908 63.2972 135.977 63.193C136.046 63.0889 136.115 63.0021 136.184 62.9326H136.288C136.633 62.516 136.996 62.1687 137.376 61.891H133.128C133.37 61.7173 133.629 61.5437 133.905 61.3701C134.147 61.1618 134.406 60.9882 134.682 60.8493H137.531L137.998 60.5889H139.448C139.517 60.5194 139.604 60.4673 139.707 60.4326C139.811 60.3979 139.897 60.3632 139.966 60.3285H140.588C141.21 60.016 141.883 59.7555 142.609 59.5472H145.769C146.252 59.3736 146.736 59.2347 147.219 59.1305C147.738 58.9916 148.273 58.8701 148.825 58.766H147.53L148.359 58.6097L153.851 57.7243V57.4639H156.493V57.2035H151.519V56.943H154.472C154.472 56.7694 154.472 56.6305 154.472 56.5264C154.472 56.3875 154.455 56.266 154.421 56.1618C154.386 55.8493 154.265 55.5889 154.058 55.3805H153.177C153.143 55.3458 153.056 55.2937 152.918 55.2243L152.556 55.3805H151.675C151.537 55.4847 151.399 55.6062 151.26 55.7451C151.122 55.8493 150.967 55.9882 150.794 56.1618H150.846C150.466 56.5437 149.982 56.7347 149.395 56.7347H140.588C140.07 56.7347 139.725 56.5437 139.552 56.1618H139.5C139.397 55.9882 139.362 55.7972 139.397 55.5889V55.3805H140.225C140.26 55.3111 140.277 55.2243 140.277 55.1201H136.962C136.962 54.9812 136.996 54.8076 137.065 54.5993H144.525C144.525 54.5646 144.56 54.4778 144.629 54.3389H140.018C140.122 53.9916 140.277 53.6444 140.484 53.2972H141.365C141.469 53.1236 141.59 52.95 141.728 52.7764C141.866 52.6028 142.004 52.4291 142.142 52.2555H138.257L138.723 51.7347H146.235C146.373 51.5958 146.511 51.4743 146.65 51.3701C146.822 51.2312 146.978 51.0923 147.116 50.9535H142.35L142.66 50.693H141.21C141.382 50.5541 141.572 50.4326 141.78 50.3285C141.987 50.1896 142.194 50.0507 142.401 49.9118H144.836C145.562 49.4951 146.321 49.1479 147.116 48.8701H147.478C148.411 48.5229 149.447 48.2625 150.587 48.0889C151.761 47.8805 153.039 47.7764 154.421 47.7764C157.253 47.7764 159.653 48.141 161.622 48.8701H161.207C161.587 49.009 161.95 49.1653 162.295 49.3389C162.675 49.5125 163.038 49.7035 163.383 49.9118H160.948L162.036 50.693H163.487L163.798 50.9535H168.564L169.341 51.7347H161.829C161.898 51.8041 161.967 51.891 162.036 51.9951C162.105 52.0993 162.174 52.1861 162.244 52.2555H166.077C166.215 52.3944 166.336 52.568 166.44 52.7764C166.578 52.95 166.682 53.1236 166.751 53.2972H165.922L166.388 54.3389H170.999C171.068 54.4778 171.103 54.5646 171.103 54.5993H163.642C163.711 54.6687 163.746 54.7555 163.746 54.8597C163.78 54.9639 163.815 55.0507 163.85 55.1201H165.559C165.559 55.1548 165.559 55.1896 165.559 55.2243C165.594 55.259 165.611 55.3111 165.611 55.3805H166.492L166.803 56.943H163.798C163.798 56.9778 163.798 57.0125 163.798 57.0472C163.832 57.0819 163.85 57.134 163.85 57.2035H168.823V57.4639H166.233V57.7243C166.267 57.8979 166.285 58.0715 166.285 58.2451C166.285 58.4187 166.285 58.5923 166.285 58.766H167.631V59.5472H164.419V60.3285H163.85V60.5889H162.451V60.8493H159.601V61.891H163.85V62.9326H163.746V63.4535H161.881V63.7139H163.021V64.2347H166.44V65.016H165.818V65.5368H166.233V66.5785H165.922V68.141H164.212V69.1826H166.181V69.9639H166.44V71.0055H166.906V71.266H167.321V72.0472H165.715V72.568H165.404ZM150.38 55.068C150.138 55.068 149.965 55.0854 149.862 55.1201H150.95C150.846 55.0854 150.656 55.068 150.38 55.068ZM150.742 64.1305L150.276 64.2347H150.742V64.1305ZM148.981 65.5368H150.431C150.052 65.8146 149.862 66.1618 149.862 66.5785H148.307V66.7347C148.307 67.0819 148.428 67.3771 148.67 67.6201C148.843 67.8632 149.188 68.0368 149.706 68.141H150.95C151.468 68.0368 151.917 67.8632 152.297 67.6201C152.607 67.3423 152.901 66.9951 153.177 66.5785H153.436C153.505 66.4048 153.574 66.2486 153.644 66.1097C153.713 65.9361 153.764 65.7451 153.799 65.5368H153.384C153.384 65.4673 153.384 65.4153 153.384 65.3805C153.419 65.3458 153.436 65.3111 153.436 65.2764H153.488V65.016H154.11C154.144 64.8771 154.162 64.7555 154.162 64.6514C154.162 64.5125 154.162 64.3736 154.162 64.2347H153.281L150.742 64.8076C150.604 64.8423 150.466 64.8771 150.328 64.9118C150.224 64.9465 150.121 64.9812 150.017 65.016C149.913 65.0507 149.81 65.0854 149.706 65.1201C149.603 65.1548 149.516 65.2069 149.447 65.2764H149.395C149.326 65.3111 149.257 65.3458 149.188 65.3805C149.119 65.4153 149.05 65.4673 148.981 65.5368ZM149.24 68.141H147.945C148.083 68.1757 148.29 68.193 148.566 68.193C148.67 68.193 148.774 68.193 148.877 68.193C149.015 68.193 149.136 68.1757 149.24 68.141Z" fill="white"/>
<path d="M134.922 51.2139V51.9951H137.149V52.516H134.818V53.0368H135.802V54.0785H135.958V55.1201H136.942V55.641H135.543V56.0055C135.543 56.1791 135.526 56.318 135.492 56.4222H135.233C135.094 56.8041 134.887 57.0646 134.611 57.2035H135.077C134.904 57.3423 134.663 57.4118 134.352 57.4118H128.446V57.9847H128.239V59.0264H127.876V59.5472H128.549V60.068H128.446V60.5889H127.513V61.6305H130.933V62.6722H134.818V63.7139H130.725V64.2347H136.01V65.016H128.964V65.2764H127.358V66.318H129.896V66.8389H130.881V67.0993H131.399V68.141H129.275V68.9222H131.554V69.9639H131.658V71.0055H129.482V71.7868H129.275V72.0472H128.446V73.0889H126.633V74.1305H127.928C127.859 74.6166 127.651 74.9639 127.306 75.1722H127.772C127.6 75.3111 127.358 75.3805 127.047 75.3805H117.981C117.67 75.3805 117.428 75.3111 117.255 75.1722H116.737C116.392 74.9639 116.185 74.6166 116.116 74.1305H114.769V73.0889H116.582V72.0472H117.411V71.7868H117.618V71.0055H119.794V69.9639H119.69V68.9222H117.411V68.141H119.535V67.0993H119.017V66.8389H118.033V66.318H115.494V65.2764H117.1V65.016H124.146V64.2347H118.861V63.7139H122.954V62.6722H119.069V61.6305H115.649V60.5889H116.582V60.068H116.686V59.5472H116.012V59.0264H116.375V57.9847H116.582V57.4118H113.007C112.696 57.4118 112.455 57.3423 112.282 57.2035H111.816C111.539 57.0646 111.332 56.8041 111.194 56.4222H111.505C111.47 56.3528 111.436 56.2833 111.401 56.2139C111.401 56.1444 111.401 56.075 111.401 56.0055V55.641H112.8V55.1201H111.816V54.0785H111.66V53.0368H110.676V52.516H113.007V51.9951H110.78V51.2139H111.66V50.693H111.608V49.9118H112.023V49.7035C112.023 49.4604 112.075 49.2694 112.178 49.1305H114.717C114.959 48.575 115.373 48.2972 115.96 48.2972H119.535V48.0889H120.364V47.0472H114.717V46.5264H117.255C117.29 46.4569 117.307 46.3701 117.307 46.266H116.841C116.841 46.1271 116.841 46.0055 116.841 45.9014C116.876 45.7625 116.91 45.6236 116.945 45.4847H116.53C116.565 45.3111 116.599 45.1375 116.634 44.9639C116.668 44.7555 116.703 44.5819 116.737 44.443H116.634C116.634 44.3736 116.634 44.3215 116.634 44.2868C116.668 44.2521 116.686 44.2173 116.686 44.1826H117.048C117.048 44.1132 117.048 44.0611 117.048 44.0264C117.083 43.9916 117.1 43.9569 117.1 43.9222H116.996C117.031 43.7833 117.065 43.6618 117.1 43.5576C117.135 43.4187 117.169 43.2798 117.204 43.141H117.255C117.324 42.9673 117.394 42.7937 117.463 42.6201C117.532 42.4118 117.618 42.2382 117.722 42.0993H117.929C117.998 41.9257 118.084 41.7521 118.188 41.5784H117.152C117.359 41.2312 117.601 40.884 117.877 40.5368H117.204L117.981 39.7555H119.017C119.19 39.6166 119.345 39.4951 119.483 39.3909C119.656 39.2521 119.829 39.1132 120.001 38.9743H119.69C120.174 38.6271 120.657 38.3666 121.141 38.193H121.089C121.193 38.1236 121.296 38.0715 121.4 38.0368C121.504 38.0021 121.607 37.9673 121.711 37.9326H120.882C121.987 37.516 123.179 37.2382 124.457 37.0993C125.735 36.9257 127.064 36.8389 128.446 36.8389H133.264C134.024 36.8389 134.49 37.2034 134.663 37.9326H135.44C135.474 38.0021 135.492 38.0889 135.492 38.193H135.543V38.9743H135.854V39.7555H134.818V40.5368H135.492V41.5784H136.528V42.0993H136.32V43.141H136.269V43.9222H136.372V44.1826H136.061V44.443H136.113V44.5472C136.113 44.9291 135.992 45.2416 135.751 45.4847H136.165C135.923 45.7972 135.561 45.9535 135.077 45.9535H130.881C130.224 45.9535 129.741 46.0576 129.43 46.266H129.845C129.776 46.3007 129.672 46.3875 129.534 46.5264H126.995C126.822 46.7 126.719 46.8736 126.684 47.0472H132.331C132.297 47.1514 132.262 47.2555 132.228 47.3597C132.228 47.4639 132.228 47.568 132.228 47.6722V48.0889H131.399V48.2972H137.305C137.927 48.2972 138.358 48.575 138.6 49.1305H136.061C136.131 49.3389 136.165 49.5298 136.165 49.7035V49.9118H135.751V50.693H135.802V51.2139H134.922Z" fill="white"/>
</svg>
