<svg width="647" height="325" viewBox="0 0 647 325" fill="none" xmlns="http://www.w3.org/2000/svg">
<rect x="0.5" y="0.5" width="646" height="324" rx="19.5" stroke="black" stroke-opacity="0.08"/>
<path d="M27.4716 25.5625C27.4186 25.0663 27.1951 24.6799 26.8011 24.4034C26.411 24.1269 25.9034 23.9886 25.2784 23.9886C24.839 23.9886 24.4621 24.0549 24.1477 24.1875C23.8333 24.3201 23.5928 24.5 23.4261 24.7273C23.2595 24.9545 23.1742 25.214 23.1705 25.5057C23.1705 25.7481 23.2254 25.9583 23.3352 26.1364C23.4489 26.3144 23.6023 26.4659 23.7955 26.5909C23.9886 26.7121 24.2027 26.8144 24.4375 26.8977C24.6723 26.9811 24.9091 27.0511 25.1477 27.108L26.2386 27.3807C26.678 27.483 27.1004 27.6212 27.5057 27.7955C27.9148 27.9697 28.2803 28.1894 28.6023 28.4545C28.928 28.7197 29.1856 29.0398 29.375 29.4148C29.5644 29.7898 29.6591 30.2292 29.6591 30.733C29.6591 31.4148 29.4848 32.0152 29.1364 32.5341C28.7879 33.0492 28.2841 33.4527 27.625 33.7443C26.9697 34.0322 26.1761 34.1761 25.2443 34.1761C24.339 34.1761 23.553 34.036 22.8864 33.7557C22.2235 33.4754 21.7045 33.0663 21.3295 32.5284C20.9583 31.9905 20.7576 31.3352 20.7273 30.5625H22.8011C22.8314 30.9678 22.9564 31.3049 23.1761 31.5739C23.3958 31.8428 23.6818 32.0436 24.0341 32.1761C24.3902 32.3087 24.7879 32.375 25.2273 32.375C25.6856 32.375 26.0871 32.3068 26.4318 32.1705C26.7803 32.0303 27.053 31.8371 27.25 31.5909C27.447 31.3409 27.5473 31.0492 27.5511 30.7159C27.5473 30.4129 27.4583 30.1629 27.2841 29.9659C27.1098 29.7652 26.8655 29.5985 26.5511 29.4659C26.2405 29.3295 25.8769 29.2083 25.4602 29.1023L24.1364 28.7614C23.178 28.5152 22.4205 28.142 21.8636 27.642C21.3106 27.1383 21.0341 26.4697 21.0341 25.6364C21.0341 24.9508 21.2197 24.3504 21.5909 23.8352C21.9659 23.3201 22.4754 22.9205 23.1193 22.6364C23.7633 22.3485 24.4924 22.2045 25.3068 22.2045C26.1326 22.2045 26.8561 22.3485 27.4773 22.6364C28.1023 22.9205 28.5928 23.3163 28.9489 23.8239C29.3049 24.3277 29.4886 24.9072 29.5 25.5625H27.4716ZM33.9588 34.1761C33.4058 34.1761 32.9077 34.0777 32.4645 33.8807C32.0251 33.6799 31.6766 33.3845 31.419 32.9943C31.1652 32.6042 31.0384 32.1231 31.0384 31.5511C31.0384 31.0587 31.1293 30.6515 31.3111 30.3295C31.4929 30.0076 31.741 29.75 32.0554 29.5568C32.3698 29.3636 32.724 29.2178 33.1179 29.1193C33.5156 29.017 33.9266 28.9432 34.3509 28.8977C34.8622 28.8447 35.277 28.7973 35.5952 28.7557C35.9134 28.7102 36.1444 28.642 36.2884 28.5511C36.4361 28.4564 36.5099 28.3106 36.5099 28.1136V28.0795C36.5099 27.6515 36.383 27.3201 36.1293 27.0852C35.8755 26.8504 35.5099 26.733 35.0327 26.733C34.5289 26.733 34.1293 26.8428 33.8338 27.0625C33.5421 27.2822 33.3452 27.5417 33.2429 27.8409L31.3224 27.5682C31.474 27.0379 31.724 26.5947 32.0724 26.2386C32.4209 25.8788 32.8471 25.6098 33.3509 25.4318C33.8546 25.25 34.4115 25.1591 35.0213 25.1591C35.4418 25.1591 35.8603 25.2083 36.277 25.3068C36.6937 25.4053 37.0743 25.5682 37.419 25.7955C37.7637 26.0189 38.0402 26.3239 38.2486 26.7102C38.4607 27.0966 38.5668 27.5795 38.5668 28.1591V34H36.5895V32.8011H36.5213C36.3963 33.0436 36.2202 33.2708 35.9929 33.483C35.7694 33.6913 35.4872 33.8598 35.1463 33.9886C34.8092 34.1136 34.4134 34.1761 33.9588 34.1761ZM34.4929 32.6648C34.9058 32.6648 35.2637 32.5833 35.5668 32.4205C35.8698 32.2538 36.1027 32.0341 36.2656 31.7614C36.4323 31.4886 36.5156 31.1913 36.5156 30.8693V29.8409C36.4512 29.8939 36.3414 29.9432 36.1861 29.9886C36.0346 30.0341 35.8641 30.0739 35.6747 30.108C35.4853 30.142 35.2978 30.1723 35.1122 30.1989C34.9266 30.2254 34.7656 30.2481 34.6293 30.267C34.3224 30.3087 34.0478 30.3769 33.8054 30.4716C33.563 30.5663 33.3717 30.6989 33.2315 30.8693C33.0914 31.036 33.0213 31.2519 33.0213 31.517C33.0213 31.8958 33.1596 32.1818 33.4361 32.375C33.7126 32.5682 34.0649 32.6648 34.4929 32.6648ZM42.6918 22.3636V34H40.6349V22.3636H42.6918ZM48.6705 34.1705C47.7955 34.1705 47.0398 33.9886 46.4034 33.625C45.7708 33.2576 45.2841 32.7386 44.9432 32.0682C44.6023 31.3939 44.4318 30.6004 44.4318 29.6875C44.4318 28.7898 44.6023 28.0019 44.9432 27.3239C45.2879 26.642 45.7689 26.1117 46.3864 25.733C47.0038 25.3504 47.7292 25.1591 48.5625 25.1591C49.1004 25.1591 49.608 25.2462 50.0852 25.4205C50.5663 25.5909 50.9905 25.8561 51.358 26.2159C51.7292 26.5758 52.0208 27.0341 52.233 27.5909C52.4451 28.1439 52.5511 28.803 52.5511 29.5682V30.1989H45.3977V28.8125H50.5795C50.5758 28.4186 50.4905 28.0682 50.3239 27.7614C50.1572 27.4508 49.9242 27.2064 49.625 27.0284C49.3295 26.8504 48.9848 26.7614 48.5909 26.7614C48.1705 26.7614 47.8011 26.8636 47.483 27.0682C47.1648 27.2689 46.9167 27.5341 46.7386 27.8636C46.5644 28.1894 46.4754 28.5473 46.4716 28.9375V30.1477C46.4716 30.6553 46.5644 31.0909 46.75 31.4545C46.9356 31.8144 47.1951 32.0909 47.5284 32.2841C47.8617 32.4735 48.2519 32.5682 48.6989 32.5682C48.9981 32.5682 49.2689 32.5265 49.5114 32.4432C49.7538 32.3561 49.964 32.2292 50.142 32.0625C50.3201 31.8958 50.4545 31.6894 50.5455 31.4432L52.4659 31.6591C52.3447 32.1667 52.1136 32.6098 51.7727 32.9886C51.4356 33.3636 51.0038 33.6553 50.4773 33.8636C49.9508 34.0682 49.3485 34.1705 48.6705 34.1705ZM61.1889 27.5795L59.3139 27.7841C59.2609 27.5947 59.1681 27.4167 59.0355 27.25C58.9067 27.0833 58.7325 26.9489 58.5128 26.8466C58.2931 26.7443 58.0241 26.6932 57.706 26.6932C57.2779 26.6932 56.9181 26.786 56.6264 26.9716C56.3385 27.1572 56.1965 27.3977 56.2003 27.6932C56.1965 27.947 56.2893 28.1534 56.4787 28.3125C56.6719 28.4716 56.9901 28.6023 57.4332 28.7045L58.9219 29.0227C59.7476 29.2008 60.3613 29.483 60.7628 29.8693C61.1681 30.2557 61.3726 30.7614 61.3764 31.3864C61.3726 31.9356 61.2116 32.4205 60.8935 32.8409C60.5791 33.2576 60.1416 33.5833 59.581 33.8182C59.0204 34.053 58.3764 34.1705 57.6491 34.1705C56.581 34.1705 55.7211 33.947 55.0696 33.5C54.4181 33.0492 54.0298 32.4223 53.9048 31.6193L55.9105 31.4261C56.0014 31.8201 56.1946 32.1174 56.4901 32.3182C56.7855 32.5189 57.17 32.6193 57.6435 32.6193C58.1321 32.6193 58.5241 32.5189 58.8196 32.3182C59.1188 32.1174 59.2685 31.8693 59.2685 31.5739C59.2685 31.3239 59.1719 31.1174 58.9787 30.9545C58.7893 30.7917 58.4938 30.6667 58.0923 30.5795L56.6037 30.267C55.7666 30.0928 55.1473 29.7992 54.7457 29.3864C54.3442 28.9697 54.1454 28.4432 54.1491 27.8068C54.1454 27.2689 54.2912 26.803 54.5866 26.4091C54.8859 26.0114 55.3007 25.7045 55.831 25.4886C56.3651 25.2689 56.9806 25.1591 57.6776 25.1591C58.7003 25.1591 59.5052 25.3769 60.0923 25.8125C60.6832 26.2481 61.0488 26.8371 61.1889 27.5795ZM67.1321 34V22.3636H71.4957C72.3897 22.3636 73.1397 22.5189 73.7457 22.8295C74.3556 23.1402 74.8158 23.5758 75.1264 24.1364C75.4408 24.6932 75.598 25.3428 75.598 26.0852C75.598 26.8314 75.4389 27.4792 75.1207 28.0284C74.8063 28.5739 74.3423 28.9962 73.7287 29.2955C73.1151 29.5909 72.3613 29.7386 71.4673 29.7386H68.3594V27.9886H71.1832C71.706 27.9886 72.134 27.9167 72.4673 27.7727C72.8007 27.625 73.0469 27.411 73.206 27.1307C73.3688 26.8466 73.4503 26.4981 73.4503 26.0852C73.4503 25.6723 73.3688 25.3201 73.206 25.0284C73.0431 24.733 72.795 24.5095 72.4616 24.358C72.1283 24.2027 71.6984 24.125 71.1719 24.125H69.2401V34H67.1321ZM73.1435 28.7273L76.0241 34H73.6719L70.8423 28.7273H73.1435ZM81.1861 34.1705C80.3111 34.1705 79.5554 33.9886 78.919 33.625C78.2865 33.2576 77.7997 32.7386 77.4588 32.0682C77.1179 31.3939 76.9474 30.6004 76.9474 29.6875C76.9474 28.7898 77.1179 28.0019 77.4588 27.3239C77.8035 26.642 78.2846 26.1117 78.902 25.733C79.5194 25.3504 80.2448 25.1591 81.0781 25.1591C81.616 25.1591 82.1236 25.2462 82.6009 25.4205C83.0819 25.5909 83.5062 25.8561 83.8736 26.2159C84.2448 26.5758 84.5365 27.0341 84.7486 27.5909C84.9607 28.1439 85.0668 28.803 85.0668 29.5682V30.1989H77.9134V28.8125H83.0952C83.0914 28.4186 83.0062 28.0682 82.8395 27.7614C82.6728 27.4508 82.4399 27.2064 82.1406 27.0284C81.8452 26.8504 81.5005 26.7614 81.1065 26.7614C80.6861 26.7614 80.3168 26.8636 79.9986 27.0682C79.6804 27.2689 79.4323 27.5341 79.2543 27.8636C79.08 28.1894 78.991 28.5473 78.9872 28.9375V30.1477C78.9872 30.6553 79.08 31.0909 79.2656 31.4545C79.4512 31.8144 79.7107 32.0909 80.044 32.2841C80.3774 32.4735 80.7675 32.5682 81.2145 32.5682C81.5137 32.5682 81.7846 32.5265 82.027 32.4432C82.2694 32.3561 82.4796 32.2292 82.6577 32.0625C82.8357 31.8958 82.9702 31.6894 83.0611 31.4432L84.9815 31.6591C84.8603 32.1667 84.6293 32.6098 84.2884 32.9886C83.9512 33.3636 83.5194 33.6553 82.9929 33.8636C82.4664 34.0682 81.8641 34.1705 81.1861 34.1705ZM94.3523 25.2727L91.2443 34H88.9716L85.8636 25.2727H88.0568L90.0625 31.7557H90.1534L92.1648 25.2727H94.3523ZM99.3423 34.1705C98.4673 34.1705 97.7116 33.9886 97.0753 33.625C96.4427 33.2576 95.956 32.7386 95.6151 32.0682C95.2741 31.3939 95.1037 30.6004 95.1037 29.6875C95.1037 28.7898 95.2741 28.0019 95.6151 27.3239C95.9598 26.642 96.4408 26.1117 97.0582 25.733C97.6757 25.3504 98.401 25.1591 99.2344 25.1591C99.7723 25.1591 100.28 25.2462 100.757 25.4205C101.238 25.5909 101.662 25.8561 102.03 26.2159C102.401 26.5758 102.693 27.0341 102.905 27.5909C103.117 28.1439 103.223 28.803 103.223 29.5682V30.1989H96.0696V28.8125H101.251C101.248 28.4186 101.162 28.0682 100.996 27.7614C100.829 27.4508 100.596 27.2064 100.297 27.0284C100.001 26.8504 99.6567 26.7614 99.2628 26.7614C98.8423 26.7614 98.473 26.8636 98.1548 27.0682C97.8366 27.2689 97.5885 27.5341 97.4105 27.8636C97.2363 28.1894 97.1473 28.5473 97.1435 28.9375V30.1477C97.1435 30.6553 97.2363 31.0909 97.4219 31.4545C97.6075 31.8144 97.867 32.0909 98.2003 32.2841C98.5336 32.4735 98.9238 32.5682 99.3707 32.5682C99.67 32.5682 99.9408 32.5265 100.183 32.4432C100.426 32.3561 100.636 32.2292 100.814 32.0625C100.992 31.8958 101.126 31.6894 101.217 31.4432L103.138 31.6591C103.017 32.1667 102.786 32.6098 102.445 32.9886C102.107 33.3636 101.676 33.6553 101.149 33.8636C100.623 34.0682 100.02 34.1705 99.3423 34.1705ZM107.02 28.8864V34H104.963V25.2727H106.929V26.7557H107.031C107.232 26.267 107.552 25.8788 107.991 25.5909C108.435 25.303 108.982 25.1591 109.634 25.1591C110.236 25.1591 110.76 25.2879 111.207 25.5455C111.658 25.803 112.007 26.1761 112.253 26.6648C112.503 27.1534 112.626 27.7462 112.622 28.4432V34H110.565V28.7614C110.565 28.178 110.414 27.7216 110.111 27.392C109.812 27.0625 109.397 26.8977 108.866 26.8977C108.507 26.8977 108.187 26.9773 107.906 27.1364C107.63 27.2917 107.412 27.517 107.253 27.8125C107.098 28.108 107.02 28.4659 107.02 28.8864ZM120.276 30.3295V25.2727H122.332V34H120.338V32.4489H120.247C120.05 32.9375 119.726 33.3371 119.276 33.6477C118.829 33.9583 118.277 34.1136 117.622 34.1136C117.05 34.1136 116.545 33.9867 116.105 33.733C115.67 33.4754 115.329 33.1023 115.082 32.6136C114.836 32.1212 114.713 31.5265 114.713 30.8295V25.2727H116.77V30.5114C116.77 31.0644 116.921 31.5038 117.224 31.8295C117.527 32.1553 117.925 32.3182 118.418 32.3182C118.721 32.3182 119.014 32.2443 119.298 32.0966C119.582 31.9489 119.815 31.7292 119.997 31.4375C120.183 31.142 120.276 30.7727 120.276 30.3295ZM128.311 34.1705C127.436 34.1705 126.68 33.9886 126.044 33.625C125.411 33.2576 124.925 32.7386 124.584 32.0682C124.243 31.3939 124.072 30.6004 124.072 29.6875C124.072 28.7898 124.243 28.0019 124.584 27.3239C124.929 26.642 125.41 26.1117 126.027 25.733C126.644 25.3504 127.37 25.1591 128.203 25.1591C128.741 25.1591 129.249 25.2462 129.726 25.4205C130.207 25.5909 130.631 25.8561 130.999 26.2159C131.37 26.5758 131.661 27.0341 131.874 27.5909C132.086 28.1439 132.192 28.803 132.192 29.5682V30.1989H125.038V28.8125H130.22C130.216 28.4186 130.131 28.0682 129.964 27.7614C129.798 27.4508 129.565 27.2064 129.266 27.0284C128.97 26.8504 128.625 26.7614 128.232 26.7614C127.811 26.7614 127.442 26.8636 127.124 27.0682C126.805 27.2689 126.557 27.5341 126.379 27.8636C126.205 28.1894 126.116 28.5473 126.112 28.9375V30.1477C126.112 30.6553 126.205 31.0909 126.391 31.4545C126.576 31.8144 126.836 32.0909 127.169 32.2841C127.502 32.4735 127.893 32.5682 128.339 32.5682C128.639 32.5682 128.91 32.5265 129.152 32.4432C129.394 32.3561 129.605 32.2292 129.783 32.0625C129.961 31.8958 130.095 31.6894 130.186 31.4432L132.107 31.6591C131.985 32.1667 131.754 32.6098 131.413 32.9886C131.076 33.3636 130.644 33.6553 130.118 33.8636C129.591 34.0682 128.989 34.1705 128.311 34.1705Z" fill="#111927"/>
<g clip-path="url(#clip0_244_7941)">
<path d="M51.7493 296.273H52.8061V302.511C52.8061 303.068 52.7038 303.541 52.4993 303.93C52.2947 304.32 52.0064 304.615 51.6342 304.817C51.2621 305.018 50.8232 305.119 50.3175 305.119C49.8402 305.119 49.4155 305.033 49.0433 304.859C48.6712 304.683 48.3786 304.433 48.1655 304.109C47.9524 303.786 47.8459 303.401 47.8459 302.955H48.8857C48.8857 303.202 48.9467 303.418 49.0689 303.602C49.1939 303.784 49.3643 303.926 49.5803 304.028C49.7962 304.131 50.0419 304.182 50.3175 304.182C50.6214 304.182 50.88 304.118 51.093 303.99C51.3061 303.862 51.468 303.675 51.5788 303.428C51.6925 303.178 51.7493 302.872 51.7493 302.511V296.273ZM56.7138 305.153C56.299 305.153 55.9226 305.075 55.5845 304.919C55.2464 304.76 54.978 304.531 54.7791 304.233C54.5803 303.932 54.4808 303.568 54.4808 303.142C54.4808 302.767 54.5547 302.463 54.7024 302.23C54.8501 301.994 55.0476 301.81 55.2947 301.676C55.5419 301.543 55.8146 301.443 56.1129 301.378C56.4141 301.31 56.7166 301.256 57.0206 301.216C57.4183 301.165 57.7408 301.126 57.9879 301.101C58.2379 301.072 58.4197 301.026 58.5334 300.96C58.6499 300.895 58.7081 300.781 58.7081 300.619V300.585C58.7081 300.165 58.593 299.838 58.3629 299.605C58.1357 299.372 57.7905 299.256 57.3274 299.256C56.8473 299.256 56.4709 299.361 56.1982 299.571C55.9254 299.781 55.7337 300.006 55.6229 300.244L54.6683 299.903C54.8388 299.506 55.0661 299.196 55.3501 298.974C55.6371 298.75 55.9496 298.594 56.2876 298.506C56.6286 298.415 56.9638 298.369 57.2933 298.369C57.5036 298.369 57.745 298.395 58.0178 298.446C58.2933 298.494 58.5589 298.595 58.8146 298.749C59.0732 298.902 59.2876 299.134 59.4581 299.443C59.6286 299.753 59.7138 300.168 59.7138 300.688V305H58.7081V304.114H58.657C58.5888 304.256 58.4751 304.408 58.3161 304.57C58.157 304.732 57.9453 304.869 57.6811 304.983C57.4169 305.097 57.0945 305.153 56.7138 305.153ZM56.8672 304.25C57.2649 304.25 57.6001 304.172 57.8729 304.016C58.1484 303.859 58.3558 303.658 58.495 303.411C58.6371 303.163 58.7081 302.903 58.7081 302.631V301.71C58.6655 301.761 58.5717 301.808 58.4268 301.851C58.2848 301.891 58.12 301.926 57.9325 301.957C57.7479 301.986 57.5675 302.011 57.3913 302.034C57.218 302.054 57.0774 302.071 56.9695 302.085C56.7081 302.119 56.4638 302.175 56.2365 302.251C56.0121 302.325 55.8303 302.437 55.6911 302.588C55.5547 302.736 55.4865 302.937 55.4865 303.193C55.4865 303.543 55.6158 303.807 55.8743 303.986C56.1357 304.162 56.4666 304.25 56.8672 304.25ZM62.555 301.062V305H61.5494V298.455H62.521V299.477H62.6062C62.7596 299.145 62.9925 298.878 63.305 298.676C63.6175 298.472 64.021 298.369 64.5153 298.369C64.9585 298.369 65.3462 298.46 65.6786 298.642C66.011 298.821 66.2695 299.094 66.4542 299.46C66.6388 299.824 66.7312 300.284 66.7312 300.841V305H65.7255V300.909C65.7255 300.395 65.592 299.994 65.3249 299.707C65.0579 299.418 64.6914 299.273 64.2255 299.273C63.9045 299.273 63.6175 299.342 63.3647 299.482C63.1147 299.621 62.9173 299.824 62.7724 300.091C62.6275 300.358 62.555 300.682 62.555 301.062Z" fill="#A1A7C4"/>
<path d="M98.6023 305V296.273H103.835V297.21H99.6591V300.159H103.443V301.097H99.6591V305H98.6023ZM107.773 305.136C107.142 305.136 106.598 304.997 106.141 304.719C105.686 304.438 105.335 304.045 105.088 303.543C104.844 303.037 104.722 302.449 104.722 301.778C104.722 301.108 104.844 300.517 105.088 300.006C105.335 299.491 105.679 299.091 106.119 298.804C106.563 298.514 107.08 298.369 107.67 298.369C108.011 298.369 108.348 298.426 108.68 298.54C109.013 298.653 109.315 298.838 109.588 299.094C109.861 299.347 110.078 299.682 110.24 300.099C110.402 300.517 110.483 301.031 110.483 301.642V302.068H105.438V301.199H109.46C109.46 300.83 109.386 300.5 109.239 300.21C109.094 299.92 108.886 299.692 108.616 299.524C108.349 299.357 108.034 299.273 107.67 299.273C107.27 299.273 106.923 299.372 106.631 299.571C106.341 299.767 106.118 300.023 105.962 300.338C105.805 300.653 105.727 300.991 105.727 301.352V301.932C105.727 302.426 105.813 302.845 105.983 303.189C106.156 303.53 106.396 303.79 106.703 303.969C107.01 304.145 107.366 304.233 107.773 304.233C108.037 304.233 108.276 304.196 108.489 304.122C108.705 304.045 108.891 303.932 109.047 303.781C109.203 303.628 109.324 303.437 109.409 303.21L110.381 303.483C110.278 303.812 110.107 304.102 109.865 304.352C109.624 304.599 109.325 304.793 108.97 304.932C108.615 305.068 108.216 305.136 107.773 305.136ZM112.149 305V296.273H113.155V299.494H113.24C113.314 299.381 113.416 299.236 113.547 299.06C113.68 298.881 113.871 298.722 114.118 298.582C114.368 298.44 114.706 298.369 115.132 298.369C115.683 298.369 116.169 298.507 116.59 298.783C117.01 299.058 117.338 299.449 117.574 299.955C117.81 300.46 117.928 301.057 117.928 301.744C117.928 302.438 117.81 303.038 117.574 303.547C117.338 304.053 117.011 304.445 116.594 304.723C116.176 304.999 115.695 305.136 115.149 305.136C114.729 305.136 114.392 305.067 114.139 304.928C113.886 304.786 113.692 304.625 113.555 304.446C113.419 304.264 113.314 304.114 113.24 303.994H113.121V305H112.149ZM113.138 301.727C113.138 302.222 113.21 302.658 113.355 303.036C113.5 303.411 113.712 303.705 113.99 303.918C114.268 304.128 114.609 304.233 115.013 304.233C115.433 304.233 115.784 304.122 116.065 303.901C116.349 303.676 116.563 303.375 116.705 302.997C116.849 302.616 116.922 302.193 116.922 301.727C116.922 301.267 116.851 300.852 116.709 300.483C116.57 300.111 116.358 299.817 116.074 299.601C115.793 299.382 115.439 299.273 115.013 299.273C114.604 299.273 114.26 299.376 113.982 299.584C113.703 299.788 113.493 300.075 113.351 300.445C113.209 300.811 113.138 301.239 113.138 301.727Z" fill="#A1A7C4"/>
<path d="M149.197 296.273H150.458L153.424 303.517H153.526L156.492 296.273H157.753V305H156.765V298.369H156.68L153.952 305H152.998L150.27 298.369H150.185V305H149.197V296.273ZM161.662 305.153C161.247 305.153 160.871 305.075 160.533 304.919C160.195 304.76 159.926 304.531 159.727 304.233C159.529 303.932 159.429 303.568 159.429 303.142C159.429 302.767 159.503 302.463 159.651 302.23C159.798 301.994 159.996 301.81 160.243 301.676C160.49 301.543 160.763 301.443 161.061 301.378C161.362 301.31 161.665 301.256 161.969 301.216C162.367 301.165 162.689 301.126 162.936 301.101C163.186 301.072 163.368 301.026 163.482 300.96C163.598 300.895 163.656 300.781 163.656 300.619V300.585C163.656 300.165 163.541 299.838 163.311 299.605C163.084 299.372 162.739 299.256 162.276 299.256C161.796 299.256 161.419 299.361 161.146 299.571C160.874 299.781 160.682 300.006 160.571 300.244L159.617 299.903C159.787 299.506 160.014 299.196 160.298 298.974C160.585 298.75 160.898 298.594 161.236 298.506C161.577 298.415 161.912 298.369 162.242 298.369C162.452 298.369 162.693 298.395 162.966 298.446C163.242 298.494 163.507 298.595 163.763 298.749C164.021 298.902 164.236 299.134 164.406 299.443C164.577 299.753 164.662 300.168 164.662 300.688V305H163.656V304.114H163.605C163.537 304.256 163.423 304.408 163.264 304.57C163.105 304.732 162.894 304.869 162.629 304.983C162.365 305.097 162.043 305.153 161.662 305.153ZM161.816 304.25C162.213 304.25 162.548 304.172 162.821 304.016C163.097 303.859 163.304 303.658 163.443 303.411C163.585 303.163 163.656 302.903 163.656 302.631V301.71C163.614 301.761 163.52 301.808 163.375 301.851C163.233 301.891 163.068 301.926 162.881 301.957C162.696 301.986 162.516 302.011 162.34 302.034C162.166 302.054 162.026 302.071 161.918 302.085C161.656 302.119 161.412 302.175 161.185 302.251C160.96 302.325 160.779 302.437 160.639 302.588C160.503 302.736 160.435 302.937 160.435 303.193C160.435 303.543 160.564 303.807 160.823 303.986C161.084 304.162 161.415 304.25 161.816 304.25ZM166.498 305V298.455H167.469V299.443H167.537C167.657 299.119 167.873 298.857 168.185 298.655C168.498 298.453 168.85 298.352 169.242 298.352C169.316 298.352 169.408 298.354 169.519 298.357C169.63 298.359 169.714 298.364 169.77 298.369V299.392C169.736 299.384 169.658 299.371 169.536 299.354C169.417 299.334 169.29 299.324 169.157 299.324C168.839 299.324 168.555 299.391 168.305 299.524C168.057 299.655 167.861 299.837 167.716 300.07C167.574 300.3 167.503 300.562 167.503 300.858V305H166.498Z" fill="#A1A7C4"/>
<path d="M201.108 305H200L203.204 296.273H204.295L207.5 305H206.392L203.784 297.653H203.716L201.108 305ZM201.517 301.591H205.983V302.528H201.517V301.591ZM208.723 307.455V298.455H209.694V299.494H209.814C209.888 299.381 209.99 299.236 210.121 299.06C210.254 298.881 210.444 298.722 210.692 298.582C210.942 298.44 211.28 298.369 211.706 298.369C212.257 298.369 212.743 298.507 213.163 298.783C213.584 299.058 213.912 299.449 214.148 299.955C214.383 300.46 214.501 301.057 214.501 301.744C214.501 302.438 214.383 303.038 214.148 303.547C213.912 304.053 213.585 304.445 213.167 304.723C212.75 304.999 212.268 305.136 211.723 305.136C211.302 305.136 210.966 305.067 210.713 304.928C210.46 304.786 210.265 304.625 210.129 304.446C209.993 304.264 209.888 304.114 209.814 303.994H209.729V307.455H208.723ZM209.711 301.727C209.711 302.222 209.784 302.658 209.929 303.036C210.074 303.411 210.285 303.705 210.564 303.918C210.842 304.128 211.183 304.233 211.586 304.233C212.007 304.233 212.358 304.122 212.639 303.901C212.923 303.676 213.136 303.375 213.278 302.997C213.423 302.616 213.496 302.193 213.496 301.727C213.496 301.267 213.425 300.852 213.282 300.483C213.143 300.111 212.932 299.817 212.648 299.601C212.366 299.382 212.013 299.273 211.586 299.273C211.177 299.273 210.834 299.376 210.555 299.584C210.277 299.788 210.067 300.075 209.925 300.445C209.782 300.811 209.711 301.239 209.711 301.727ZM216.035 305V298.455H217.007V299.443H217.075C217.194 299.119 217.41 298.857 217.723 298.655C218.035 298.453 218.388 298.352 218.78 298.352C218.854 298.352 218.946 298.354 219.057 298.357C219.167 298.359 219.251 298.364 219.308 298.369V299.392C219.274 299.384 219.196 299.371 219.074 299.354C218.954 299.334 218.828 299.324 218.694 299.324C218.376 299.324 218.092 299.391 217.842 299.524C217.595 299.655 217.399 299.837 217.254 300.07C217.112 300.3 217.041 300.562 217.041 300.858V305H216.035Z" fill="#A1A7C4"/>
<path d="M250.297 296.273H251.559L254.525 303.517H254.627L257.593 296.273H258.854V305H257.865V298.369H257.78L255.053 305H254.098L251.371 298.369H251.286V305H250.297V296.273ZM262.763 305.153C262.348 305.153 261.972 305.075 261.634 304.919C261.295 304.76 261.027 304.531 260.828 304.233C260.629 303.932 260.53 303.568 260.53 303.142C260.53 302.767 260.604 302.463 260.751 302.23C260.899 301.994 261.097 301.81 261.344 301.676C261.591 301.543 261.864 301.443 262.162 301.378C262.463 301.31 262.766 301.256 263.07 301.216C263.467 301.165 263.79 301.126 264.037 301.101C264.287 301.072 264.469 301.026 264.582 300.96C264.699 300.895 264.757 300.781 264.757 300.619V300.585C264.757 300.165 264.642 299.838 264.412 299.605C264.185 299.372 263.839 299.256 263.376 299.256C262.896 299.256 262.52 299.361 262.247 299.571C261.974 299.781 261.783 300.006 261.672 300.244L260.717 299.903C260.888 299.506 261.115 299.196 261.399 298.974C261.686 298.75 261.999 298.594 262.337 298.506C262.678 298.415 263.013 298.369 263.342 298.369C263.553 298.369 263.794 298.395 264.067 298.446C264.342 298.494 264.608 298.595 264.864 298.749C265.122 298.902 265.337 299.134 265.507 299.443C265.678 299.753 265.763 300.168 265.763 300.688V305H264.757V304.114H264.706C264.638 304.256 264.524 304.408 264.365 304.57C264.206 304.732 263.994 304.869 263.73 304.983C263.466 305.097 263.143 305.153 262.763 305.153ZM262.916 304.25C263.314 304.25 263.649 304.172 263.922 304.016C264.197 303.859 264.405 303.658 264.544 303.411C264.686 303.163 264.757 302.903 264.757 302.631V301.71C264.714 301.761 264.621 301.808 264.476 301.851C264.334 301.891 264.169 301.926 263.982 301.957C263.797 301.986 263.616 302.011 263.44 302.034C263.267 302.054 263.126 302.071 263.018 302.085C262.757 302.119 262.513 302.175 262.286 302.251C262.061 302.325 261.879 302.437 261.74 302.588C261.604 302.736 261.536 302.937 261.536 303.193C261.536 303.543 261.665 303.807 261.923 303.986C262.185 304.162 262.516 304.25 262.916 304.25ZM268.012 307.455C267.841 307.455 267.689 307.44 267.556 307.412C267.422 307.386 267.33 307.361 267.279 307.335L267.534 306.449C267.779 306.511 267.995 306.534 268.182 306.517C268.37 306.5 268.536 306.416 268.681 306.266C268.828 306.118 268.963 305.878 269.086 305.545L269.273 305.034L266.853 298.455H267.944L269.75 303.67H269.819L271.625 298.455H272.716L269.938 305.955C269.813 306.293 269.658 306.572 269.473 306.794C269.289 307.018 269.074 307.185 268.83 307.293C268.588 307.401 268.316 307.455 268.012 307.455Z" fill="#A1A7C4"/>
<path d="M307.371 296.273H308.428V302.511C308.428 303.068 308.326 303.541 308.121 303.93C307.917 304.32 307.628 304.615 307.256 304.817C306.884 305.018 306.445 305.119 305.939 305.119C305.462 305.119 305.037 305.033 304.665 304.859C304.293 304.683 304 304.433 303.787 304.109C303.574 303.786 303.468 303.401 303.468 302.955H304.507C304.507 303.202 304.569 303.418 304.691 303.602C304.816 303.784 304.986 303.926 305.202 304.028C305.418 304.131 305.664 304.182 305.939 304.182C306.243 304.182 306.502 304.118 306.715 303.99C306.928 303.862 307.09 303.675 307.201 303.428C307.314 303.178 307.371 302.872 307.371 302.511V296.273ZM314.534 302.324V298.455H315.54V305H314.534V303.892H314.466C314.313 304.224 314.074 304.507 313.75 304.74C313.426 304.97 313.017 305.085 312.523 305.085C312.114 305.085 311.75 304.996 311.432 304.817C311.114 304.635 310.864 304.362 310.682 303.999C310.5 303.632 310.409 303.17 310.409 302.614V298.455H311.415V302.545C311.415 303.023 311.549 303.403 311.816 303.688C312.086 303.972 312.429 304.114 312.847 304.114C313.097 304.114 313.351 304.05 313.61 303.922C313.871 303.794 314.09 303.598 314.266 303.334C314.445 303.07 314.534 302.733 314.534 302.324ZM318.388 301.062V305H317.382V298.455H318.354V299.477H318.439C318.592 299.145 318.825 298.878 319.138 298.676C319.45 298.472 319.854 298.369 320.348 298.369C320.791 298.369 321.179 298.46 321.511 298.642C321.844 298.821 322.102 299.094 322.287 299.46C322.472 299.824 322.564 300.284 322.564 300.841V305H321.558V300.909C321.558 300.395 321.425 299.994 321.158 299.707C320.891 299.418 320.524 299.273 320.058 299.273C319.737 299.273 319.45 299.342 319.197 299.482C318.947 299.621 318.75 299.824 318.605 300.091C318.46 300.358 318.388 300.682 318.388 301.062Z" fill="#A1A7C4"/>
<path d="M358.002 296.273H359.059V302.511C359.059 303.068 358.957 303.541 358.752 303.93C358.548 304.32 358.26 304.615 357.887 304.817C357.515 305.018 357.076 305.119 356.571 305.119C356.093 305.119 355.669 305.033 355.297 304.859C354.924 304.683 354.632 304.433 354.419 304.109C354.206 303.786 354.099 303.401 354.099 302.955H355.139C355.139 303.202 355.2 303.418 355.322 303.602C355.447 303.784 355.618 303.926 355.833 304.028C356.049 304.131 356.295 304.182 356.571 304.182C356.875 304.182 357.133 304.118 357.346 303.99C357.559 303.862 357.721 303.675 357.832 303.428C357.946 303.178 358.002 302.872 358.002 302.511V296.273ZM365.166 302.324V298.455H366.172V305H365.166V303.892H365.098C364.944 304.224 364.706 304.507 364.382 304.74C364.058 304.97 363.649 305.085 363.154 305.085C362.745 305.085 362.382 304.996 362.064 304.817C361.745 304.635 361.495 304.362 361.314 303.999C361.132 303.632 361.041 303.17 361.041 302.614V298.455H362.047V302.545C362.047 303.023 362.18 303.403 362.447 303.688C362.717 303.972 363.061 304.114 363.478 304.114C363.728 304.114 363.983 304.05 364.241 303.922C364.502 303.794 364.721 303.598 364.897 303.334C365.076 303.07 365.166 302.733 365.166 302.324ZM369.019 296.273V305H368.014V296.273H369.019Z" fill="#A1A7C4"/>
<path d="M401.536 305H400.428L403.632 296.273H404.723L407.928 305H406.82L404.212 297.653H404.144L401.536 305ZM401.945 301.591H406.411V302.528H401.945V301.591ZM413.276 302.324V298.455H414.281V305H413.276V303.892H413.208C413.054 304.224 412.816 304.507 412.492 304.74C412.168 304.97 411.759 305.085 411.264 305.085C410.855 305.085 410.492 304.996 410.173 304.817C409.855 304.635 409.605 304.362 409.423 303.999C409.242 303.632 409.151 303.17 409.151 302.614V298.455H410.156V302.545C410.156 303.023 410.29 303.403 410.557 303.688C410.827 303.972 411.171 304.114 411.588 304.114C411.838 304.114 412.093 304.05 412.351 303.922C412.612 303.794 412.831 303.598 413.007 303.334C413.186 303.07 413.276 302.733 413.276 302.324ZM418.765 307.591C418.28 307.591 417.862 307.528 417.513 307.403C417.163 307.281 416.872 307.119 416.639 306.918C416.409 306.719 416.226 306.506 416.089 306.278L416.89 305.716C416.981 305.835 417.096 305.972 417.236 306.125C417.375 306.281 417.565 306.416 417.807 306.53C418.051 306.646 418.371 306.705 418.765 306.705C419.294 306.705 419.73 306.577 420.074 306.321C420.417 306.065 420.589 305.665 420.589 305.119V303.79H420.504C420.43 303.909 420.325 304.057 420.189 304.233C420.055 304.406 419.862 304.561 419.609 304.697C419.359 304.831 419.021 304.898 418.595 304.898C418.067 304.898 417.592 304.773 417.172 304.523C416.754 304.273 416.423 303.909 416.179 303.432C415.937 302.955 415.817 302.375 415.817 301.693C415.817 301.023 415.934 300.439 416.17 299.942C416.406 299.442 416.734 299.055 417.155 298.783C417.575 298.507 418.061 298.369 418.612 298.369C419.038 298.369 419.376 298.44 419.626 298.582C419.879 298.722 420.072 298.881 420.206 299.06C420.342 299.236 420.447 299.381 420.521 299.494H420.623V298.455H421.595V305.188C421.595 305.75 421.467 306.207 421.211 306.56C420.959 306.915 420.618 307.175 420.189 307.339C419.763 307.507 419.288 307.591 418.765 307.591ZM418.731 303.994C419.135 303.994 419.476 303.902 419.754 303.717C420.032 303.533 420.244 303.267 420.389 302.92C420.534 302.574 420.606 302.159 420.606 301.676C420.606 301.205 420.535 300.788 420.393 300.428C420.251 300.067 420.041 299.784 419.763 299.58C419.484 299.375 419.14 299.273 418.731 299.273C418.305 299.273 417.95 299.381 417.666 299.597C417.385 299.812 417.173 300.102 417.031 300.466C416.892 300.83 416.822 301.233 416.822 301.676C416.822 302.131 416.893 302.533 417.035 302.882C417.18 303.229 417.393 303.501 417.675 303.7C417.959 303.896 418.311 303.994 418.731 303.994Z" fill="#A1A7C4"/>
<path d="M458.219 298.455C458.167 298.023 457.96 297.688 457.596 297.449C457.233 297.21 456.787 297.091 456.258 297.091C455.872 297.091 455.534 297.153 455.244 297.278C454.957 297.403 454.733 297.575 454.571 297.794C454.412 298.013 454.332 298.261 454.332 298.54C454.332 298.773 454.388 298.973 454.498 299.141C454.612 299.305 454.757 299.443 454.933 299.554C455.109 299.662 455.294 299.751 455.487 299.822C455.68 299.891 455.858 299.946 456.02 299.989L456.906 300.227C457.133 300.287 457.386 300.369 457.665 300.474C457.946 300.58 458.214 300.723 458.47 300.905C458.729 301.084 458.942 301.314 459.109 301.595C459.277 301.876 459.361 302.222 459.361 302.631C459.361 303.102 459.237 303.528 458.99 303.909C458.746 304.29 458.388 304.592 457.916 304.817C457.447 305.041 456.878 305.153 456.207 305.153C455.582 305.153 455.041 305.053 454.584 304.851C454.129 304.649 453.771 304.368 453.51 304.007C453.251 303.646 453.105 303.227 453.071 302.75H454.162C454.19 303.08 454.301 303.352 454.494 303.568C454.69 303.781 454.937 303.94 455.236 304.045C455.537 304.148 455.861 304.199 456.207 304.199C456.611 304.199 456.973 304.134 457.294 304.003C457.615 303.869 457.869 303.685 458.057 303.449C458.244 303.21 458.338 302.932 458.338 302.614C458.338 302.324 458.257 302.088 458.095 301.906C457.933 301.724 457.72 301.577 457.456 301.463C457.192 301.349 456.906 301.25 456.599 301.165L455.525 300.858C454.844 300.662 454.304 300.382 453.906 300.018C453.508 299.655 453.309 299.179 453.309 298.591C453.309 298.102 453.442 297.676 453.706 297.312C453.973 296.946 454.331 296.662 454.78 296.46C455.231 296.256 455.736 296.153 456.292 296.153C456.855 296.153 457.355 296.254 457.792 296.456C458.23 296.655 458.577 296.928 458.832 297.274C459.091 297.621 459.227 298.014 459.241 298.455H458.219ZM463.706 305.136C463.075 305.136 462.531 304.997 462.074 304.719C461.62 304.438 461.269 304.045 461.021 303.543C460.777 303.037 460.655 302.449 460.655 301.778C460.655 301.108 460.777 300.517 461.021 300.006C461.269 299.491 461.612 299.091 462.053 298.804C462.496 298.514 463.013 298.369 463.604 298.369C463.945 298.369 464.281 298.426 464.614 298.54C464.946 298.653 465.249 298.838 465.521 299.094C465.794 299.347 466.012 299.682 466.173 300.099C466.335 300.517 466.416 301.031 466.416 301.642V302.068H461.371V301.199H465.394C465.394 300.83 465.32 300.5 465.172 300.21C465.027 299.92 464.82 299.692 464.55 299.524C464.283 299.357 463.968 299.273 463.604 299.273C463.203 299.273 462.857 299.372 462.564 299.571C462.274 299.767 462.051 300.023 461.895 300.338C461.739 300.653 461.661 300.991 461.661 301.352V301.932C461.661 302.426 461.746 302.845 461.916 303.189C462.09 303.53 462.33 303.79 462.637 303.969C462.943 304.145 463.3 304.233 463.706 304.233C463.97 304.233 464.209 304.196 464.422 304.122C464.638 304.045 464.824 303.932 464.98 303.781C465.137 303.628 465.257 303.437 465.343 303.21L466.314 303.483C466.212 303.812 466.04 304.102 465.798 304.352C465.557 304.599 465.259 304.793 464.904 304.932C464.548 305.068 464.149 305.136 463.706 305.136ZM467.946 307.455V298.455H468.918V299.494H469.037C469.111 299.381 469.213 299.236 469.344 299.06C469.477 298.881 469.668 298.722 469.915 298.582C470.165 298.44 470.503 298.369 470.929 298.369C471.48 298.369 471.966 298.507 472.387 298.783C472.807 299.058 473.135 299.449 473.371 299.955C473.607 300.46 473.725 301.057 473.725 301.744C473.725 302.438 473.607 303.038 473.371 303.547C473.135 304.053 472.808 304.445 472.391 304.723C471.973 304.999 471.492 305.136 470.946 305.136C470.526 305.136 470.189 305.067 469.936 304.928C469.683 304.786 469.489 304.625 469.352 304.446C469.216 304.264 469.111 304.114 469.037 303.994H468.952V307.455H467.946ZM468.935 301.727C468.935 302.222 469.007 302.658 469.152 303.036C469.297 303.411 469.509 303.705 469.787 303.918C470.066 304.128 470.406 304.233 470.81 304.233C471.23 304.233 471.581 304.122 471.862 303.901C472.146 303.676 472.36 303.375 472.502 302.997C472.646 302.616 472.719 302.193 472.719 301.727C472.719 301.267 472.648 300.852 472.506 300.483C472.367 300.111 472.155 299.817 471.871 299.601C471.59 299.382 471.236 299.273 470.81 299.273C470.401 299.273 470.057 299.376 469.779 299.584C469.5 299.788 469.29 300.075 469.148 300.445C469.006 300.811 468.935 301.239 468.935 301.727Z" fill="#A1A7C4"/>
<path d="M512.728 300.636C512.728 301.557 512.562 302.352 512.229 303.023C511.897 303.693 511.441 304.21 510.862 304.574C510.282 304.938 509.62 305.119 508.876 305.119C508.131 305.119 507.469 304.938 506.89 304.574C506.31 304.21 505.854 303.693 505.522 303.023C505.19 302.352 505.023 301.557 505.023 300.636C505.023 299.716 505.19 298.92 505.522 298.25C505.854 297.58 506.31 297.062 506.89 296.699C507.469 296.335 508.131 296.153 508.876 296.153C509.62 296.153 510.282 296.335 510.862 296.699C511.441 297.062 511.897 297.58 512.229 298.25C512.562 298.92 512.728 299.716 512.728 300.636ZM511.705 300.636C511.705 299.881 511.579 299.243 511.326 298.723C511.076 298.203 510.737 297.81 510.308 297.543C509.881 297.276 509.404 297.142 508.876 297.142C508.347 297.142 507.869 297.276 507.44 297.543C507.014 297.81 506.674 298.203 506.421 298.723C506.171 299.243 506.046 299.881 506.046 300.636C506.046 301.392 506.171 302.03 506.421 302.55C506.674 303.07 507.014 303.463 507.44 303.73C507.869 303.997 508.347 304.131 508.876 304.131C509.404 304.131 509.881 303.997 510.308 303.73C510.737 303.463 511.076 303.07 511.326 302.55C511.579 302.03 511.705 301.392 511.705 300.636ZM517.028 305.136C516.414 305.136 515.886 304.991 515.442 304.702C514.999 304.412 514.658 304.013 514.42 303.504C514.181 302.996 514.062 302.415 514.062 301.761C514.062 301.097 514.184 300.51 514.428 300.001C514.675 299.49 515.019 299.091 515.46 298.804C515.903 298.514 516.42 298.369 517.011 298.369C517.471 298.369 517.886 298.455 518.255 298.625C518.624 298.795 518.927 299.034 519.163 299.341C519.398 299.648 519.545 300.006 519.602 300.415H518.596C518.519 300.116 518.349 299.852 518.085 299.622C517.823 299.389 517.471 299.273 517.028 299.273C516.636 299.273 516.292 299.375 515.996 299.58C515.704 299.781 515.475 300.067 515.31 300.436C515.148 300.803 515.067 301.233 515.067 301.727C515.067 302.233 515.147 302.673 515.306 303.048C515.468 303.423 515.695 303.714 515.988 303.922C516.283 304.129 516.63 304.233 517.028 304.233C517.289 304.233 517.526 304.188 517.739 304.097C517.952 304.006 518.133 303.875 518.281 303.705C518.428 303.534 518.533 303.33 518.596 303.091H519.602C519.545 303.477 519.404 303.825 519.18 304.135C518.958 304.442 518.664 304.686 518.298 304.868C517.934 305.047 517.511 305.136 517.028 305.136ZM523.918 298.455V299.307H520.526V298.455H523.918ZM521.515 296.886H522.521V303.125C522.521 303.409 522.562 303.622 522.644 303.764C522.729 303.903 522.837 303.997 522.968 304.045C523.102 304.091 523.242 304.114 523.39 304.114C523.501 304.114 523.592 304.108 523.663 304.097C523.734 304.082 523.791 304.071 523.833 304.062L524.038 304.966C523.969 304.991 523.874 305.017 523.752 305.043C523.63 305.071 523.475 305.085 523.288 305.085C523.004 305.085 522.725 305.024 522.452 304.902C522.183 304.78 521.958 304.594 521.779 304.344C521.603 304.094 521.515 303.778 521.515 303.398V296.886Z" fill="#A1A7C4"/>
<path d="M562.612 296.273V305H561.589L556.833 298.148H556.748V305H555.691V296.273H556.714L561.487 303.142H561.572V296.273H562.612ZM567.249 305.136C566.658 305.136 566.14 304.996 565.694 304.714C565.25 304.433 564.904 304.04 564.654 303.534C564.407 303.028 564.283 302.437 564.283 301.761C564.283 301.08 564.407 300.484 564.654 299.976C564.904 299.467 565.25 299.072 565.694 298.791C566.14 298.51 566.658 298.369 567.249 298.369C567.84 298.369 568.357 298.51 568.8 298.791C569.246 299.072 569.593 299.467 569.84 299.976C570.09 300.484 570.215 301.08 570.215 301.761C570.215 302.437 570.09 303.028 569.84 303.534C569.593 304.04 569.246 304.433 568.8 304.714C568.357 304.996 567.84 305.136 567.249 305.136ZM567.249 304.233C567.698 304.233 568.067 304.118 568.357 303.888C568.647 303.658 568.861 303.355 569 302.98C569.14 302.605 569.209 302.199 569.209 301.761C569.209 301.324 569.14 300.916 569 300.538C568.861 300.161 568.647 299.855 568.357 299.622C568.067 299.389 567.698 299.273 567.249 299.273C566.8 299.273 566.431 299.389 566.141 299.622C565.851 299.855 565.637 300.161 565.498 300.538C565.358 300.916 565.289 301.324 565.289 301.761C565.289 302.199 565.358 302.605 565.498 302.98C565.637 303.355 565.851 303.658 566.141 303.888C566.431 304.118 566.8 304.233 567.249 304.233ZM576.868 298.455L574.447 305H573.425L571.004 298.455H572.095L573.902 303.67H573.97L575.777 298.455H576.868Z" fill="#A1A7C4"/>
<path d="M611.094 305H608.401V296.273H611.213C612.06 296.273 612.784 296.447 613.386 296.797C613.989 297.143 614.45 297.642 614.771 298.293C615.092 298.94 615.253 299.716 615.253 300.619C615.253 301.528 615.091 302.311 614.767 302.967C614.443 303.621 613.972 304.124 613.352 304.476C612.733 304.825 611.98 305 611.094 305ZM609.457 304.062H611.026C611.747 304.062 612.345 303.923 612.82 303.645C613.294 303.366 613.648 302.97 613.881 302.456C614.114 301.942 614.23 301.33 614.23 300.619C614.23 299.915 614.115 299.308 613.885 298.8C613.655 298.288 613.311 297.896 612.854 297.624C612.396 297.348 611.827 297.21 611.145 297.21H609.457V304.062ZM619.634 305.136C619.003 305.136 618.459 304.997 618.001 304.719C617.547 304.438 617.196 304.045 616.949 303.543C616.705 303.037 616.582 302.449 616.582 301.778C616.582 301.108 616.705 300.517 616.949 300.006C617.196 299.491 617.54 299.091 617.98 298.804C618.423 298.514 618.94 298.369 619.531 298.369C619.872 298.369 620.209 298.426 620.541 298.54C620.874 298.653 621.176 298.838 621.449 299.094C621.722 299.347 621.939 299.682 622.101 300.099C622.263 300.517 622.344 301.031 622.344 301.642V302.068H617.298V301.199H621.321C621.321 300.83 621.247 300.5 621.099 300.21C620.955 299.92 620.747 299.692 620.477 299.524C620.21 299.357 619.895 299.273 619.531 299.273C619.131 299.273 618.784 299.372 618.492 299.571C618.202 299.767 617.979 300.023 617.823 300.338C617.666 300.653 617.588 300.991 617.588 301.352V301.932C617.588 302.426 617.673 302.845 617.844 303.189C618.017 303.53 618.257 303.79 618.564 303.969C618.871 304.145 619.227 304.233 619.634 304.233C619.898 304.233 620.136 304.196 620.349 304.122C620.565 304.045 620.751 303.932 620.908 303.781C621.064 303.628 621.185 303.437 621.27 303.21L622.242 303.483C622.139 303.812 621.967 304.102 621.726 304.352C621.484 304.599 621.186 304.793 620.831 304.932C620.476 305.068 620.077 305.136 619.634 305.136ZM626.533 305.136C625.919 305.136 625.391 304.991 624.948 304.702C624.504 304.412 624.163 304.013 623.925 303.504C623.686 302.996 623.567 302.415 623.567 301.761C623.567 301.097 623.689 300.51 623.933 300.001C624.18 299.49 624.524 299.091 624.965 298.804C625.408 298.514 625.925 298.369 626.516 298.369C626.976 298.369 627.391 298.455 627.76 298.625C628.129 298.795 628.432 299.034 628.668 299.341C628.903 299.648 629.05 300.006 629.107 300.415H628.101C628.024 300.116 627.854 299.852 627.59 299.622C627.328 299.389 626.976 299.273 626.533 299.273C626.141 299.273 625.797 299.375 625.501 299.58C625.209 299.781 624.98 300.067 624.815 300.436C624.653 300.803 624.573 301.233 624.573 301.727C624.573 302.233 624.652 302.673 624.811 303.048C624.973 303.423 625.2 303.714 625.493 303.922C625.788 304.129 626.135 304.233 626.533 304.233C626.794 304.233 627.031 304.188 627.244 304.097C627.457 304.006 627.638 303.875 627.786 303.705C627.933 303.534 628.038 303.33 628.101 303.091H629.107C629.05 303.477 628.909 303.825 628.685 304.135C628.463 304.442 628.169 304.686 627.803 304.868C627.439 305.047 627.016 305.136 626.533 305.136Z" fill="#A1A7C4"/>
<path d="M23.6307 61.1193C23.1307 61.1193 22.6804 61.0199 22.2798 60.821C21.8793 60.6222 21.5582 60.3494 21.3168 60.0028C21.0753 59.6562 20.9432 59.2614 20.9205 58.8182H21.9432C21.983 59.2131 22.1619 59.5398 22.4801 59.7983C22.8011 60.054 23.1847 60.1818 23.6307 60.1818C23.9886 60.1818 24.3068 60.098 24.5852 59.9304C24.8665 59.7628 25.0866 59.5327 25.2457 59.2401C25.4077 58.9446 25.4886 58.6108 25.4886 58.2386C25.4886 57.858 25.4048 57.5185 25.2372 57.2202C25.0724 56.919 24.8452 56.6818 24.5554 56.5085C24.2656 56.3352 23.9347 56.2472 23.5625 56.2443C23.2955 56.2415 23.0213 56.2827 22.7401 56.3679C22.4588 56.4503 22.2273 56.5568 22.0455 56.6875L21.0568 56.5682L21.5852 52.2727H26.1193V53.2102H22.4716L22.1648 55.7841H22.2159C22.3949 55.642 22.6193 55.5241 22.8892 55.4304C23.1591 55.3366 23.4403 55.2898 23.733 55.2898C24.267 55.2898 24.7429 55.4176 25.1605 55.6733C25.581 55.9261 25.9105 56.2727 26.1491 56.7131C26.3906 57.1534 26.5114 57.6562 26.5114 58.2216C26.5114 58.7784 26.3864 59.2756 26.1364 59.7131C25.8892 60.1477 25.5483 60.4915 25.1136 60.7443C24.679 60.9943 24.1847 61.1193 23.6307 61.1193ZM31.0508 61.1193C30.4087 61.1193 29.8619 60.9446 29.4102 60.5952C28.9585 60.2429 28.6133 59.733 28.3746 59.0653C28.136 58.3949 28.0167 57.5852 28.0167 56.6364C28.0167 55.6932 28.136 54.8878 28.3746 54.2202C28.6161 53.5497 28.9627 53.0384 29.4144 52.6861C29.869 52.331 30.4144 52.1534 31.0508 52.1534C31.6871 52.1534 32.2312 52.331 32.6829 52.6861C33.1374 53.0384 33.484 53.5497 33.7227 54.2202C33.9641 54.8878 34.0849 55.6932 34.0849 56.6364C34.0849 57.5852 33.9656 58.3949 33.7269 59.0653C33.4883 59.733 33.1431 60.2429 32.6914 60.5952C32.2397 60.9446 31.6928 61.1193 31.0508 61.1193ZM31.0508 60.1818C31.6871 60.1818 32.1815 59.875 32.5337 59.2614C32.886 58.6477 33.0621 57.7727 33.0621 56.6364C33.0621 55.8807 32.9812 55.2372 32.8192 54.706C32.6602 54.1747 32.43 53.7699 32.1289 53.4915C31.8306 53.2131 31.4712 53.0739 31.0508 53.0739C30.4201 53.0739 29.9272 53.3849 29.5721 54.0071C29.217 54.6264 29.0394 55.5028 29.0394 56.6364C29.0394 57.392 29.119 58.0341 29.2781 58.5625C29.4371 59.0909 29.6658 59.4929 29.9641 59.7685C30.2653 60.044 30.6275 60.1818 31.0508 60.1818Z" fill="#A1A7C4"/>
<rect x="46.9555" y="57.25" width="576.809" height="0.5" stroke="#E6E9F4" stroke-width="0.5" stroke-dasharray="2 4"/>
<path d="M20.6989 103.21V102.341L24.5341 96.2727H25.1648V97.6193H24.7386L21.8409 102.205V102.273H27.0057V103.21H20.6989ZM24.8068 105V102.946V102.541V96.2727H25.8125V105H24.8068ZM31.4492 105.119C30.8072 105.119 30.2603 104.945 29.8086 104.595C29.3569 104.243 29.0117 103.733 28.7731 103.065C28.5344 102.395 28.4151 101.585 28.4151 100.636C28.4151 99.6932 28.5344 98.8878 28.7731 98.2202C29.0146 97.5497 29.3612 97.0384 29.8129 96.6861C30.2674 96.331 30.8129 96.1534 31.4492 96.1534C32.0856 96.1534 32.6296 96.331 33.0813 96.6861C33.5359 97.0384 33.8825 97.5497 34.1211 98.2202C34.3626 98.8878 34.4833 99.6932 34.4833 100.636C34.4833 101.585 34.364 102.395 34.1254 103.065C33.8867 103.733 33.5415 104.243 33.0898 104.595C32.6381 104.945 32.0913 105.119 31.4492 105.119ZM31.4492 104.182C32.0856 104.182 32.5799 103.875 32.9322 103.261C33.2844 102.648 33.4606 101.773 33.4606 100.636C33.4606 99.8807 33.3796 99.2372 33.2177 98.706C33.0586 98.1747 32.8285 97.7699 32.5273 97.4915C32.229 97.2131 31.8697 97.0739 31.4492 97.0739C30.8185 97.0739 30.3256 97.3849 29.9705 98.0071C29.6154 98.6264 29.4379 99.5028 29.4379 100.636C29.4379 101.392 29.5174 102.034 29.6765 102.562C29.8356 103.091 30.0643 103.493 30.3626 103.768C30.6637 104.044 31.0259 104.182 31.4492 104.182Z" fill="#A1A7C4"/>
<rect x="46.9555" y="101.25" width="576.809" height="0.5" stroke="#E6E9F4" stroke-width="0.5" stroke-dasharray="2 4"/>
<path d="M23.8523 149.119C23.2898 149.119 22.7884 149.023 22.348 148.83C21.9105 148.636 21.5625 148.368 21.304 148.024C21.0483 147.678 20.9091 147.276 20.8864 146.818H21.9602C21.983 147.099 22.0795 147.342 22.25 147.547C22.4205 147.749 22.6435 147.905 22.919 148.016C23.1946 148.126 23.5 148.182 23.8352 148.182C24.2102 148.182 24.5426 148.116 24.8324 147.986C25.1222 147.855 25.3494 147.673 25.5142 147.44C25.679 147.207 25.7614 146.938 25.7614 146.631C25.7614 146.31 25.6818 146.027 25.5227 145.783C25.3636 145.536 25.1307 145.342 24.8239 145.203C24.517 145.064 24.142 144.994 23.6989 144.994H23V144.057H23.6989C24.0455 144.057 24.3494 143.994 24.6108 143.869C24.875 143.744 25.081 143.568 25.2287 143.341C25.3793 143.114 25.4545 142.847 25.4545 142.54C25.4545 142.244 25.3892 141.987 25.2585 141.768C25.1278 141.55 24.9432 141.379 24.7045 141.257C24.4688 141.135 24.1903 141.074 23.8693 141.074C23.5682 141.074 23.2841 141.129 23.017 141.24C22.7528 141.348 22.5369 141.506 22.3693 141.713C22.2017 141.918 22.1108 142.165 22.0966 142.455H21.0739C21.0909 141.997 21.2287 141.597 21.4872 141.253C21.7457 140.906 22.0838 140.636 22.5014 140.443C22.9219 140.25 23.3835 140.153 23.8864 140.153C24.4261 140.153 24.8892 140.263 25.2756 140.482C25.6619 140.697 25.9588 140.983 26.1662 141.338C26.3736 141.693 26.4773 142.077 26.4773 142.489C26.4773 142.98 26.348 143.399 26.0895 143.746C25.8338 144.092 25.4858 144.332 25.0455 144.466V144.534C25.5966 144.625 26.027 144.859 26.3366 145.237C26.6463 145.612 26.8011 146.077 26.8011 146.631C26.8011 147.105 26.6719 147.531 26.4134 147.909C26.1577 148.284 25.8082 148.58 25.3651 148.795C24.9219 149.011 24.4176 149.119 23.8523 149.119ZM31.3906 149.119C30.7486 149.119 30.2017 148.945 29.75 148.595C29.2983 148.243 28.9531 147.733 28.7145 147.065C28.4759 146.395 28.3565 145.585 28.3565 144.636C28.3565 143.693 28.4759 142.888 28.7145 142.22C28.956 141.55 29.3026 141.038 29.7543 140.686C30.2088 140.331 30.7543 140.153 31.3906 140.153C32.027 140.153 32.571 140.331 33.0227 140.686C33.4773 141.038 33.8239 141.55 34.0625 142.22C34.304 142.888 34.4247 143.693 34.4247 144.636C34.4247 145.585 34.3054 146.395 34.0668 147.065C33.8281 147.733 33.483 148.243 33.0312 148.595C32.5795 148.945 32.0327 149.119 31.3906 149.119ZM31.3906 148.182C32.027 148.182 32.5213 147.875 32.8736 147.261C33.2259 146.648 33.402 145.773 33.402 144.636C33.402 143.881 33.321 143.237 33.1591 142.706C33 142.175 32.7699 141.77 32.4688 141.491C32.1705 141.213 31.8111 141.074 31.3906 141.074C30.7599 141.074 30.267 141.385 29.9119 142.007C29.5568 142.626 29.3793 143.503 29.3793 144.636C29.3793 145.392 29.4588 146.034 29.6179 146.562C29.777 147.091 30.0057 147.493 30.304 147.768C30.6051 148.044 30.9673 148.182 31.3906 148.182Z" fill="#A1A7C4"/>
<rect x="46.9555" y="145.25" width="576.809" height="0.5" stroke="#E6E9F4" stroke-width="0.5" stroke-dasharray="2 4"/>
<path d="M20.9034 193V192.233L23.7841 189.08C24.1222 188.71 24.4006 188.389 24.6193 188.116C24.8381 187.841 25 187.582 25.1051 187.341C25.2131 187.097 25.267 186.841 25.267 186.574C25.267 186.267 25.1932 186.001 25.0455 185.777C24.9006 185.553 24.7017 185.379 24.4489 185.257C24.196 185.135 23.9119 185.074 23.5966 185.074C23.2614 185.074 22.9688 185.143 22.7188 185.283C22.4716 185.419 22.2798 185.611 22.1435 185.858C22.0099 186.105 21.9432 186.395 21.9432 186.727H20.9375C20.9375 186.216 21.0554 185.767 21.2912 185.381C21.527 184.994 21.848 184.693 22.2543 184.477C22.6634 184.261 23.1222 184.153 23.6307 184.153C24.142 184.153 24.5952 184.261 24.9901 184.477C25.3849 184.693 25.6946 184.984 25.919 185.351C26.1435 185.717 26.2557 186.125 26.2557 186.574C26.2557 186.895 26.1974 187.209 26.081 187.516C25.9673 187.82 25.7685 188.159 25.4844 188.534C25.2031 188.906 24.8125 189.361 24.3125 189.898L22.3523 191.994V192.062H26.4091V193H20.9034ZM31.0156 193.119C30.3736 193.119 29.8267 192.945 29.375 192.595C28.9233 192.243 28.5781 191.733 28.3395 191.065C28.1009 190.395 27.9815 189.585 27.9815 188.636C27.9815 187.693 28.1009 186.888 28.3395 186.22C28.581 185.55 28.9276 185.038 29.3793 184.686C29.8338 184.331 30.3793 184.153 31.0156 184.153C31.652 184.153 32.196 184.331 32.6477 184.686C33.1023 185.038 33.4489 185.55 33.6875 186.22C33.929 186.888 34.0497 187.693 34.0497 188.636C34.0497 189.585 33.9304 190.395 33.6918 191.065C33.4531 191.733 33.108 192.243 32.6562 192.595C32.2045 192.945 31.6577 193.119 31.0156 193.119ZM31.0156 192.182C31.652 192.182 32.1463 191.875 32.4986 191.261C32.8509 190.648 33.027 189.773 33.027 188.636C33.027 187.881 32.946 187.237 32.7841 186.706C32.625 186.175 32.3949 185.77 32.0938 185.491C31.7955 185.213 31.4361 185.074 31.0156 185.074C30.3849 185.074 29.892 185.385 29.5369 186.007C29.1818 186.626 29.0043 187.503 29.0043 188.636C29.0043 189.392 29.0838 190.034 29.2429 190.562C29.402 191.091 29.6307 191.493 29.929 191.768C30.2301 192.044 30.5923 192.182 31.0156 192.182Z" fill="#A1A7C4"/>
<rect x="46.9555" y="189.25" width="576.809" height="0.5" stroke="#E6E9F4" stroke-width="0.5" stroke-dasharray="2 4"/>
<path d="M23.9716 228.273V237H22.9148V229.381H22.8636L20.733 230.795V229.722L22.9148 228.273H23.9716ZM29.3281 237.119C28.6861 237.119 28.1392 236.945 27.6875 236.595C27.2358 236.243 26.8906 235.733 26.652 235.065C26.4134 234.395 26.294 233.585 26.294 232.636C26.294 231.693 26.4134 230.888 26.652 230.22C26.8935 229.55 27.2401 229.038 27.6918 228.686C28.1463 228.331 28.6918 228.153 29.3281 228.153C29.9645 228.153 30.5085 228.331 30.9602 228.686C31.4148 229.038 31.7614 229.55 32 230.22C32.2415 230.888 32.3622 231.693 32.3622 232.636C32.3622 233.585 32.2429 234.395 32.0043 235.065C31.7656 235.733 31.4205 236.243 30.9688 236.595C30.517 236.945 29.9702 237.119 29.3281 237.119ZM29.3281 236.182C29.9645 236.182 30.4588 235.875 30.8111 235.261C31.1634 234.648 31.3395 233.773 31.3395 232.636C31.3395 231.881 31.2585 231.237 31.0966 230.706C30.9375 230.175 30.7074 229.77 30.4062 229.491C30.108 229.213 29.7486 229.074 29.3281 229.074C28.6974 229.074 28.2045 229.385 27.8494 230.007C27.4943 230.626 27.3168 231.503 27.3168 232.636C27.3168 233.392 27.3963 234.034 27.5554 234.562C27.7145 235.091 27.9432 235.493 28.2415 235.768C28.5426 236.044 28.9048 236.182 29.3281 236.182Z" fill="#A1A7C4"/>
<rect x="46.9555" y="233.25" width="576.809" height="0.5" stroke="#E6E9F4" stroke-width="0.5" stroke-dasharray="2 4"/>
<path d="M23.75 281.119C23.108 281.119 22.5611 280.945 22.1094 280.595C21.6577 280.243 21.3125 279.733 21.0739 279.065C20.8352 278.395 20.7159 277.585 20.7159 276.636C20.7159 275.693 20.8352 274.888 21.0739 274.22C21.3153 273.55 21.6619 273.038 22.1136 272.686C22.5682 272.331 23.1136 272.153 23.75 272.153C24.3864 272.153 24.9304 272.331 25.3821 272.686C25.8366 273.038 26.1832 273.55 26.4219 274.22C26.6634 274.888 26.7841 275.693 26.7841 276.636C26.7841 277.585 26.6648 278.395 26.4261 279.065C26.1875 279.733 25.8423 280.243 25.3906 280.595C24.9389 280.945 24.392 281.119 23.75 281.119ZM23.75 280.182C24.3864 280.182 24.8807 279.875 25.233 279.261C25.5852 278.648 25.7614 277.773 25.7614 276.636C25.7614 275.881 25.6804 275.237 25.5185 274.706C25.3594 274.175 25.1293 273.77 24.8281 273.491C24.5298 273.213 24.1705 273.074 23.75 273.074C23.1193 273.074 22.6264 273.385 22.2713 274.007C21.9162 274.626 21.7386 275.503 21.7386 276.636C21.7386 277.392 21.8182 278.034 21.9773 278.562C22.1364 279.091 22.3651 279.493 22.6634 279.768C22.9645 280.044 23.3267 280.182 23.75 280.182Z" fill="#A1A7C4"/>
<rect x="46.9555" y="277.25" width="576.809" height="0.5" stroke="#E6E9F4" stroke-width="0.5" stroke-dasharray="2 4"/>
<path d="M45.1346 233L73.0182 255L120.931 211L168.844 233.5L217.149 167L264.669 123L312.582 145L360.887 123L408.8 57L456.713 82L503.84 167H552.538L600.058 123L622.444 145" stroke="#1E5EFF" stroke-width="4" stroke-linecap="round" stroke-linejoin="round"/>
<circle cx="261" cy="124" r="6" fill="white" stroke="#1E5EFF" stroke-width="4"/>
<g clip-path="url(#clip1_244_7941)">
<path fill-rule="evenodd" clip-rule="evenodd" d="M204 50C201.791 50 200 51.7909 200 54V102C200 104.209 201.791 106 204 106H255L261 112L267 106H318C320.209 106 322 104.209 322 102V54C322 51.7909 320.209 50 318 50H204Z" fill="#333752"/>
<path d="M231.36 74.1193C230.703 74.1193 230.119 74.0128 229.608 73.7997C229.1 73.5838 228.7 73.2898 228.411 72.9176C228.121 72.5455 227.976 72.1236 227.976 71.652C227.976 71.2884 228.058 70.9545 228.223 70.6506C228.391 70.3438 228.618 70.0895 228.905 69.8878C229.192 69.6832 229.513 69.5526 229.868 69.4957V69.4361C229.402 69.3423 229.024 69.1165 228.735 68.7585C228.445 68.3977 228.3 67.9787 228.3 67.5014C228.3 67.0497 228.432 66.6477 228.696 66.2955C228.96 65.9403 229.323 65.6619 229.783 65.4602C230.246 65.2557 230.771 65.1534 231.36 65.1534C231.948 65.1534 232.472 65.2557 232.932 65.4602C233.395 65.6648 233.759 65.9446 234.023 66.2997C234.287 66.652 234.421 67.0526 234.423 67.5014C234.421 67.9815 234.273 68.4006 233.98 68.7585C233.688 69.1165 233.313 69.3423 232.855 69.4361V69.4957C233.205 69.5526 233.521 69.6832 233.806 69.8878C234.093 70.0895 234.32 70.3438 234.487 70.6506C234.658 70.9545 234.744 71.2884 234.747 71.652C234.744 72.1236 234.598 72.5455 234.308 72.9176C234.019 73.2898 233.618 73.5838 233.107 73.7997C232.598 74.0128 232.016 74.1193 231.36 74.1193ZM231.36 72.7642C231.652 72.7642 231.908 72.7116 232.127 72.6065C232.345 72.4986 232.516 72.3509 232.638 72.1634C232.763 71.973 232.825 71.7543 232.825 71.5071C232.825 71.2543 232.762 71.0312 232.634 70.8381C232.506 70.642 232.333 70.4886 232.114 70.3778C231.895 70.2642 231.644 70.2074 231.36 70.2074C231.078 70.2074 230.827 70.2642 230.605 70.3778C230.384 70.4886 230.209 70.642 230.081 70.8381C229.956 71.0312 229.894 71.2543 229.894 71.5071C229.894 71.7543 229.955 71.973 230.077 72.1634C230.199 72.3509 230.371 72.4986 230.593 72.6065C230.814 72.7116 231.07 72.7642 231.36 72.7642ZM231.36 68.8651C231.604 68.8651 231.821 68.8153 232.012 68.7159C232.202 68.6165 232.351 68.4787 232.459 68.3026C232.567 68.1264 232.621 67.9233 232.621 67.6932C232.621 67.4659 232.567 67.267 232.459 67.0966C232.351 66.9233 232.203 66.7884 232.016 66.6918C231.828 66.5923 231.61 66.5426 231.36 66.5426C231.112 66.5426 230.894 66.5923 230.703 66.6918C230.513 66.7884 230.364 66.9233 230.256 67.0966C230.151 67.267 230.098 67.4659 230.098 67.6932C230.098 67.9233 230.152 68.1264 230.26 68.3026C230.368 68.4787 230.517 68.6165 230.708 68.7159C230.898 68.8153 231.115 68.8651 231.36 68.8651ZM239.387 74.1193C238.938 74.1165 238.505 74.0412 238.087 73.8935C237.672 73.7457 237.3 73.5057 236.971 73.1733C236.641 72.8409 236.38 72.4006 236.187 71.8523C235.996 71.304 235.901 70.6307 235.901 69.8324C235.904 69.0994 235.988 68.4446 236.153 67.8679C236.32 67.2884 236.559 66.7969 236.868 66.3935C237.181 65.9901 237.555 65.6832 237.989 65.473C238.424 65.2599 238.911 65.1534 239.451 65.1534C240.033 65.1534 240.547 65.267 240.993 65.4943C241.439 65.7187 241.797 66.0241 242.067 66.4105C242.34 66.7969 242.505 67.2301 242.562 67.7102H240.742C240.671 67.4062 240.522 67.1676 240.295 66.9943C240.067 66.821 239.786 66.7344 239.451 66.7344C238.883 66.7344 238.451 66.9815 238.155 67.4759C237.863 67.9702 237.714 68.642 237.708 69.4915H237.768C237.898 69.233 238.074 69.0128 238.296 68.831C238.52 68.6463 238.775 68.5057 239.059 68.4091C239.346 68.3097 239.648 68.2599 239.966 68.2599C240.483 68.2599 240.944 68.3821 241.347 68.6264C241.751 68.8679 242.069 69.2003 242.302 69.6236C242.535 70.0469 242.651 70.5312 242.651 71.0767C242.651 71.6676 242.513 72.1932 242.238 72.6534C241.965 73.1136 241.583 73.4744 241.091 73.7358C240.603 73.9943 240.035 74.1222 239.387 74.1193ZM239.378 72.6705C239.662 72.6705 239.917 72.6023 240.141 72.4659C240.366 72.3295 240.542 72.1449 240.67 71.9119C240.797 71.679 240.861 71.4176 240.861 71.1278C240.861 70.8381 240.797 70.5781 240.67 70.348C240.545 70.1179 240.371 69.9347 240.15 69.7983C239.928 69.6619 239.675 69.5938 239.391 69.5938C239.178 69.5938 238.981 69.6335 238.799 69.7131C238.62 69.7926 238.462 69.9034 238.326 70.0455C238.192 70.1875 238.087 70.3523 238.01 70.5398C237.934 70.7244 237.895 70.9219 237.895 71.1321C237.895 71.4134 237.959 71.6705 238.087 71.9034C238.218 72.1364 238.394 72.3224 238.616 72.4616C238.84 72.6009 239.094 72.6705 239.378 72.6705ZM243.827 72.4659V71.0128L247.471 65.2727H248.724V67.2841H247.982L245.685 70.919V70.9872H250.863V72.4659H243.827ZM248.016 74V72.0227L248.05 71.3793V65.2727H249.78V74H248.016ZM262.941 69.6364C262.941 70.5881 262.76 71.3977 262.399 72.0653C262.041 72.733 261.553 73.2429 260.933 73.5952C260.317 73.9446 259.624 74.1193 258.854 74.1193C258.078 74.1193 257.382 73.9432 256.766 73.5909C256.149 73.2386 255.662 72.7287 255.304 72.0611C254.946 71.3935 254.767 70.5852 254.767 69.6364C254.767 68.6847 254.946 67.875 255.304 67.2074C255.662 66.5398 256.149 66.0312 256.766 65.6818C257.382 65.3295 258.078 65.1534 258.854 65.1534C259.624 65.1534 260.317 65.3295 260.933 65.6818C261.553 66.0312 262.041 66.5398 262.399 67.2074C262.76 67.875 262.941 68.6847 262.941 69.6364ZM261.07 69.6364C261.07 69.0199 260.977 68.5 260.793 68.0767C260.611 67.6534 260.354 67.3324 260.021 67.1136C259.689 66.8949 259.3 66.7855 258.854 66.7855C258.408 66.7855 258.019 66.8949 257.686 67.1136C257.354 67.3324 257.095 67.6534 256.911 68.0767C256.729 68.5 256.638 69.0199 256.638 69.6364C256.638 70.2528 256.729 70.7727 256.911 71.196C257.095 71.6193 257.354 71.9403 257.686 72.1591C258.019 72.3778 258.408 72.4872 258.854 72.4872C259.3 72.4872 259.689 72.3778 260.021 72.1591C260.354 71.9403 260.611 71.6193 260.793 71.196C260.977 70.7727 261.07 70.2528 261.07 69.6364ZM264.273 74V67.4545H266.033V68.5966H266.101C266.221 68.1903 266.421 67.8835 266.702 67.6761C266.983 67.4659 267.307 67.3608 267.674 67.3608C267.765 67.3608 267.863 67.3665 267.968 67.3778C268.073 67.3892 268.165 67.4048 268.245 67.4247V69.0355C268.16 69.0099 268.042 68.9872 267.891 68.9673C267.741 68.9474 267.603 68.9375 267.478 68.9375C267.211 68.9375 266.972 68.9957 266.762 69.1122C266.555 69.2259 266.39 69.3849 266.268 69.5895C266.148 69.794 266.089 70.0298 266.089 70.2969V74H264.273ZM271.291 74.1065C270.794 74.1065 270.343 73.9787 269.94 73.723C269.539 73.4645 269.221 73.0852 268.985 72.5852C268.752 72.0824 268.636 71.4659 268.636 70.7358C268.636 69.9858 268.757 69.3622 268.998 68.8651C269.24 68.3651 269.561 67.9915 269.961 67.7443C270.365 67.4943 270.806 67.3693 271.286 67.3693C271.653 67.3693 271.958 67.4318 272.203 67.5568C272.45 67.679 272.649 67.8324 272.799 68.017C272.953 68.1989 273.069 68.3778 273.149 68.554H273.204V65.2727H275.015V74H273.225V72.9517H273.149C273.063 73.1335 272.943 73.3139 272.786 73.4929C272.633 73.669 272.433 73.8153 272.186 73.9318C271.941 74.0483 271.643 74.1065 271.291 74.1065ZM271.866 72.6619C272.159 72.6619 272.406 72.5824 272.607 72.4233C272.812 72.2614 272.968 72.0355 273.076 71.7457C273.187 71.456 273.242 71.1165 273.242 70.7273C273.242 70.3381 273.188 70 273.08 69.7131C272.972 69.4261 272.816 69.2045 272.612 69.0483C272.407 68.892 272.159 68.8139 271.866 68.8139C271.568 68.8139 271.316 68.8949 271.112 69.0568C270.907 69.2187 270.752 69.4432 270.647 69.7301C270.542 70.017 270.49 70.3494 270.49 70.7273C270.49 71.108 270.542 71.4446 270.647 71.7372C270.755 72.027 270.91 72.2543 271.112 72.419C271.316 72.581 271.568 72.6619 271.866 72.6619ZM279.491 74.1278C278.817 74.1278 278.238 73.9915 277.752 73.7188C277.269 73.4432 276.897 73.054 276.635 72.5511C276.374 72.0455 276.243 71.4474 276.243 70.7571C276.243 70.0838 276.374 69.4929 276.635 68.9844C276.897 68.4759 277.265 68.0795 277.739 67.7955C278.216 67.5114 278.776 67.3693 279.418 67.3693C279.85 67.3693 280.252 67.4389 280.624 67.5781C280.999 67.7145 281.326 67.9205 281.604 68.196C281.885 68.4716 282.104 68.8182 282.26 69.2358C282.417 69.6506 282.495 70.1364 282.495 70.6932V71.1918H276.968V70.0668H280.786C280.786 69.8054 280.729 69.5739 280.616 69.3722C280.502 69.1705 280.344 69.0128 280.143 68.8991C279.944 68.7827 279.712 68.7244 279.448 68.7244C279.172 68.7244 278.928 68.7884 278.715 68.9162C278.505 69.0412 278.34 69.2102 278.221 69.4233C278.101 69.6335 278.04 69.8679 278.037 70.1264V71.196C278.037 71.5199 278.097 71.7997 278.216 72.0355C278.339 72.2713 278.51 72.4531 278.732 72.581C278.954 72.7088 279.216 72.7727 279.52 72.7727C279.722 72.7727 279.907 72.7443 280.074 72.6875C280.242 72.6307 280.385 72.5455 280.505 72.4318C280.624 72.3182 280.715 72.179 280.778 72.0142L282.456 72.125C282.371 72.5284 282.197 72.8807 281.932 73.1818C281.671 73.4801 281.333 73.7131 280.918 73.8807C280.506 74.0455 280.03 74.1278 279.491 74.1278ZM283.68 74V67.4545H285.439V68.5966H285.508C285.627 68.1903 285.827 67.8835 286.108 67.6761C286.39 67.4659 286.714 67.3608 287.08 67.3608C287.171 67.3608 287.269 67.3665 287.374 67.3778C287.479 67.3892 287.572 67.4048 287.651 67.4247V69.0355C287.566 69.0099 287.448 68.9872 287.297 68.9673C287.147 68.9474 287.009 68.9375 286.884 68.9375C286.617 68.9375 286.378 68.9957 286.168 69.1122C285.961 69.2259 285.796 69.3849 285.674 69.5895C285.555 69.794 285.495 70.0298 285.495 70.2969V74H283.68ZM294.036 69.321L292.374 69.4233C292.345 69.2812 292.284 69.1534 292.191 69.0398C292.097 68.9233 291.973 68.831 291.82 68.7628C291.669 68.6918 291.489 68.6562 291.279 68.6562C290.997 68.6562 290.76 68.7159 290.567 68.8352C290.374 68.9517 290.277 69.108 290.277 69.304C290.277 69.4602 290.34 69.5923 290.465 69.7003C290.59 69.8082 290.804 69.8949 291.108 69.9602L292.293 70.1989C292.929 70.3295 293.404 70.5398 293.716 70.8295C294.029 71.1193 294.185 71.5 294.185 71.9716C294.185 72.4006 294.058 72.777 293.806 73.1009C293.556 73.4247 293.212 73.6776 292.774 73.8594C292.34 74.0384 291.838 74.1278 291.27 74.1278C290.404 74.1278 289.713 73.9474 289.199 73.5866C288.688 73.223 288.388 72.7287 288.3 72.1037L290.085 72.0099C290.139 72.2741 290.27 72.4759 290.477 72.6151C290.685 72.7514 290.95 72.8196 291.274 72.8196C291.593 72.8196 291.848 72.7585 292.041 72.6364C292.237 72.5114 292.337 72.3509 292.34 72.1548C292.337 71.9901 292.267 71.8551 292.131 71.75C291.994 71.642 291.784 71.5597 291.5 71.5028L290.367 71.277C289.727 71.1491 289.252 70.9276 288.939 70.6122C288.629 70.2969 288.475 69.8949 288.475 69.4062C288.475 68.9858 288.588 68.6236 288.816 68.3196C289.046 68.0156 289.368 67.7812 289.783 67.6165C290.2 67.4517 290.689 67.3693 291.249 67.3693C292.075 67.3693 292.726 67.544 293.2 67.8935C293.678 68.2429 293.956 68.7187 294.036 69.321Z" fill="white"/>
<path d="M250.115 82.2727H251.377L254.343 89.517H254.445L257.411 82.2727H258.672V91H257.684V84.3693H257.598L254.871 91H253.917L251.189 84.3693H251.104V91H250.115V82.2727ZM262.581 91.1534C262.166 91.1534 261.79 91.0753 261.452 90.919C261.114 90.7599 260.845 90.5312 260.646 90.233C260.447 89.9318 260.348 89.5682 260.348 89.142C260.348 88.767 260.422 88.4631 260.57 88.2301C260.717 87.9943 260.915 87.8097 261.162 87.6761C261.409 87.5426 261.682 87.4432 261.98 87.3778C262.281 87.3097 262.584 87.2557 262.888 87.2159C263.286 87.1648 263.608 87.1264 263.855 87.1009C264.105 87.0724 264.287 87.0256 264.401 86.9602C264.517 86.8949 264.575 86.7812 264.575 86.6193V86.5852C264.575 86.1648 264.46 85.8381 264.23 85.6051C264.003 85.3722 263.658 85.2557 263.195 85.2557C262.714 85.2557 262.338 85.3608 262.065 85.571C261.793 85.7812 261.601 86.0057 261.49 86.2443L260.536 85.9034C260.706 85.5057 260.933 85.196 261.217 84.9744C261.504 84.75 261.817 84.5937 262.155 84.5057C262.496 84.4148 262.831 84.3693 263.161 84.3693C263.371 84.3693 263.612 84.3949 263.885 84.446C264.161 84.4943 264.426 84.5952 264.682 84.7486C264.94 84.902 265.155 85.1335 265.325 85.4432C265.496 85.7528 265.581 86.1676 265.581 86.6875V91H264.575V90.1136H264.524C264.456 90.2557 264.342 90.4077 264.183 90.5696C264.024 90.7315 263.813 90.8693 263.548 90.983C263.284 91.0966 262.962 91.1534 262.581 91.1534ZM262.734 90.25C263.132 90.25 263.467 90.1719 263.74 90.0156C264.016 89.8594 264.223 89.6577 264.362 89.4105C264.504 89.1634 264.575 88.9034 264.575 88.6307V87.7102C264.533 87.7614 264.439 87.8082 264.294 87.8509C264.152 87.8906 263.987 87.9261 263.8 87.9574C263.615 87.9858 263.435 88.0114 263.259 88.0341C263.085 88.054 262.945 88.071 262.837 88.0852C262.575 88.1193 262.331 88.1747 262.104 88.2514C261.879 88.3253 261.697 88.4375 261.558 88.5881C261.422 88.7358 261.354 88.9375 261.354 89.1932C261.354 89.5426 261.483 89.8068 261.741 89.9858C262.003 90.1619 262.334 90.25 262.734 90.25ZM267.83 93.4545C267.659 93.4545 267.507 93.4403 267.374 93.4119C267.24 93.3864 267.148 93.3608 267.097 93.3352L267.353 92.4489C267.597 92.5114 267.813 92.5341 268 92.517C268.188 92.5 268.354 92.4162 268.499 92.2656C268.647 92.1179 268.782 91.8778 268.904 91.5455L269.091 91.0341L266.671 84.4545H267.762L269.569 89.6705H269.637L271.444 84.4545H272.534L269.756 91.9545C269.631 92.2926 269.476 92.5724 269.292 92.794C269.107 93.0185 268.892 93.1847 268.648 93.2926C268.407 93.4006 268.134 93.4545 267.83 93.4545Z" fill="white"/>
</g>
</g>
<defs>
<clipPath id="clip0_244_7941">
<rect width="607" height="269" fill="white" transform="translate(20 40)"/>
</clipPath>
<clipPath id="clip1_244_7941">
<rect width="122" height="62" fill="white" transform="translate(200 50)"/>
</clipPath>
</defs>
</svg>
